<?xml version="1.0" standalone="no"?>
<!DOCTYPE svg PUBLIC "-//W3C//DTD SVG 20010904//EN" "http://www.w3.org/TR/2001/REC-SVG-20010904/DTD/svg10.dtd">
<!-- Created using Krita: http://krita.org -->
<svg xmlns="http://www.w3.org/2000/svg" 
    xmlns:xlink="http://www.w3.org/1999/xlink"
    xmlns:krita="http://krita.org/namespaces/svg/krita"
    xmlns:sodipodi="http://sodipodi.sourceforge.net/DTD/sodipodi-0.dtd"
    width="288pt"
    height="251.28pt"
    viewBox="0 0 288 251.28">
<defs/>
<path id="shape0" transform="matrix(-1 0 0 1.0000000049 179.65800757 27.004142569)" fill="#000000" fill-rule="evenodd" stroke="#000000" stroke-width="0.4176" stroke-linecap="square" stroke-linejoin="bevel" d="M2.21644 25.6367L32.0884 7.52508L37.8654 7.7309L67.909 25.8297L68.5095 21.0831L70.0682 19.0764L38.0513 0L30.9444 0.0643169L0 18.5361C0 18.5361 0.738814 20.903 2.21644 25.6367Z"/><path id="shape1" transform="matrix(-1 0 0 1.0000000049 266.54318815 44.439769895)" fill="#000000" fill-rule="evenodd" stroke="#000000" stroke-width="0.4176" stroke-linecap="square" stroke-linejoin="bevel" d="M94.5615 5.09925L7.76196 55.0783L7.69987 57.1079C15.1652 79.9878 26.4495 114.461 41.5526 160.528L52.9757 160.674C52.0512 162.631 52.2118 164.998 52.2291 167.311L34.8596 167.257C18.195 115.011 6.57509 78.4155 0 57.4722L0.765847 52.687L89.07 0C92.4688 0.776333 94.2993 2.47608 94.5615 5.09925Z"/><path id="shape01" transform="matrix(1.0000000162 0 0 0.99999999679 22.03418693 67.065165147)" fill="#000000" fill-rule="evenodd" stroke="#000000" stroke-width="0.4176" stroke-linecap="square" stroke-linejoin="bevel" d="M47.2755 7.15644L7.76196 31.7716L7.69987 33.8011L33.8215 113.336L24.6313 113.336L0 34.1655L0.765847 29.3802L48.2562 0L49.0481 1.58395C49.0481 1.58395 47.0133 4.53327 47.2755 7.15644Z"/><ellipse id="shape2" transform="matrix(-1 0 0 1.0000000049 213.12 201.36000098)" rx="4.32" ry="9" cx="4.32" cy="9" fill="#000000" fill-rule="evenodd"/><ellipse id="shape011" transform="matrix(-1 0 0 1.0000000195 193.54074536 198.49175266)" rx="5.6802616426" ry="11.833878422" cx="5.6802616426" cy="11.833878422" fill="#000000" fill-rule="evenodd"/><ellipse id="shape02" transform="matrix(-1 0 0 1.0000000195 168.04448867 194.1770015)" rx="6.8570119517" ry="14.285441566" cx="6.8570119517" cy="14.285441566" fill="#000000" fill-rule="evenodd"/><path id="shape3" transform="matrix(-1 0 0 1.0000000049 158.59799126 193.86431066)" fill="#000000" fill-rule="evenodd" stroke="#000000" stroke-width="0.4176" stroke-linecap="square" stroke-linejoin="bevel" d="M0.326165 0.249478C8.2497 4.56894 6.7977 25.5742 0 29.0887C4.19205 29.2471 6.8559 28.7934 7.99154 27.7275C15.4467 20.7304 11.4754 3.07479 8.37569 1.33051C7.19243 0.664648 4.91884 -0.516504 0.326165 0.249478Z"/><path id="shape4" transform="matrix(-1 0 0 1.0000000049 246.06695422 113.44909275)" fill="#000000" fill-rule="evenodd" stroke="#000000" stroke-width="0.4176" stroke-linecap="square" stroke-linejoin="bevel" d="M0.938074 23.2726L8.96108 46.4564L27.9201 33.1102L26.1673 30.6897L31.9192 28.9576C29.0293 25.7678 25.9264 25.7673 25.7724 19.1866L29.969 16.8993C24.4692 12.7513 22.4208 6.61741 19.9711 0C13.2255 5.45759 4.05849 14.7301 0 16.8771L6.31966 18.3872C6.15509 17.3953 4.36122 19.0237 0.938074 23.2726Z"/><path id="shape5" transform="matrix(-1 0 0 1.0000000049 217.8396088 106.38735882)" fill="#000000" fill-rule="evenodd" stroke="#000000" stroke-width="0.4176" stroke-linecap="square" stroke-linejoin="bevel" d="M6.1358 35.886L0 28.511L5.02493 27.8028L2.60568 22.9173L7.14794 21.8958L0.0876922 17.5655C10.1154 15.783 15.0137 6.48109 21.8362 0C24.8579 5.15643 25.5109 13.7946 32.3278 15.0117C25.8595 19.8738 20.7031 27.4058 18.5283 32.4884C16.8661 32.4588 12.7352 33.5914 6.1358 35.886Z"/><path id="shape6" transform="matrix(-1 0 0 1.0000000049 236.29123068 141.65161507)" fill="#000000" fill-rule="evenodd" stroke="#000000" stroke-width="0.4176" stroke-linecap="square" stroke-linejoin="bevel" d="M0 19.9416L1.99958 26.8923L14.2686 19.3865C17.4218 11.0259 25.5193 5.76679 36.5602 2.35391L36.4615 0C30.3215 0.129658 18.1677 6.77687 0 19.9416Z"/><path id="shape7" transform="matrix(-1 0 0 1.0000000049 233.40294873 162.43142874)" fill="#000000" fill-rule="evenodd" stroke="#000000" stroke-width="0.4176" stroke-linecap="square" stroke-linejoin="bevel" d="M0 7.90559L8.81296 36.7521L12.0962 37.1518L11.6519 0C11.619 0 7.735 2.6352 0 7.90559Z"/><rect id="shape8" transform="matrix(-1 0 0 1.0000000049 198.96 145.92000071)" fill="#00850d" fill-rule="evenodd" width="1e-06" height="0.24"/><path id="shape9" transform="matrix(-1 0 0 1.0000000049 216.06472291 145.26707421)" fill="#000000" fill-rule="evenodd" stroke="#000000" stroke-width="0.4176" stroke-linecap="square" stroke-linejoin="bevel" d="M17.9539 0C14.5141 2.17911 10.7834 8.37551 9.51656 15.7944C8.72612 20.4233 5.36989 22.4751 0.297644 22.6937C0.238115 29.0703 0.138901 39.6979 0 54.5765L56.8729 45.0611C55.2457 33.7473 54.7376 17.0187 59.483 6.97893L19.8506 19.3572L19.8487 28.5434L50.7598 18.6981L50.3247 23.3734L3.31988 36.246L3.12659 33.8056L17.7438 29.245Z"/><path id="shape10" transform="matrix(-1 0 0 1.0000000049 197.15287483 121.23128821)" fill="#000000" fill-rule="evenodd" stroke="#000000" stroke-width="0.4176" stroke-linecap="square" stroke-linejoin="bevel" d="M7.00536 40.3991C5.76441 40.7986 3.71133 41.5689 0.815785 42.5012L0 20.5313L40.494 0L40.2889 29.7717C37.0621 31.0919 33.964 31.8919 32.5811 32.4577C29.1369 6.20846 6.72224 15.0924 7.00536 40.3991Z"/><path id="shape11" transform="matrix(-1 0 0 1.0000000049 197.47922765 106.80116567)" fill="#000000" fill-rule="evenodd" stroke="#000000" stroke-width="0.4176" stroke-linecap="square" stroke-linejoin="bevel" d="M50.8304 0C43.6023 3.84923 41.6668 9.05694 40.3003 12.4801L0 33.5403C7.67385 17.3206 27.3661 4.47054 50.8304 0Z"/><path id="shape03" transform="matrix(-0.99999998543 0 0 1.0000000222 185.5057829 198.08133739)" fill="#000000" fill-rule="evenodd" stroke="#000000" stroke-width="0.4176" stroke-linecap="square" stroke-linejoin="bevel" d="M0.272312 0.208287C6.88761 3.81457 5.67534 21.3517 0 24.2859C3.49991 24.4182 5.72393 24.0394 6.67207 23.1495C12.8963 17.3076 9.58072 2.56712 6.99279 1.11083C6.0049 0.554909 4.1067 -0.431225 0.272312 0.208287Z"/><path id="shape04" transform="matrix(-0.99999998543 0 0 1.0000000222 206.60669772 201.03441824)" fill="#000000" fill-rule="evenodd" stroke="#000000" stroke-width="0.4176" stroke-linecap="square" stroke-linejoin="bevel" d="M0.208481 0.159464C5.27313 2.92042 4.34502 16.3468 0 18.5932C2.67952 18.6945 4.38222 18.4045 5.10811 17.7231C9.87338 13.2507 7.33496 1.96537 5.35366 0.850449C4.59733 0.424836 3.14407 -0.330144 0.208481 0.159464Z"/><path id="shape12" transform="matrix(-1 0 0 1.0000000049 198.39050049 204.96717333)" fill="#000000" fill-rule="evenodd" stroke="#000000" stroke-width="0.4176" stroke-linecap="square" stroke-linejoin="bevel" d="M0.529609 6.81199L4.31667 7.15962C3.62221 5.06127 4.21561 2.43393 4.4707 0L0 0.0677175C0.907007 3.09641 1.08354 5.34451 0.529609 6.81199Z"/><path id="shape13" transform="matrix(-1 0 0 1.0000000049 174.24047435 205.03401518)" fill="#000000" fill-rule="evenodd" stroke="#000000" stroke-width="0.4176" stroke-linecap="square" stroke-linejoin="bevel" d="M0 0.182804C0.029023 2.42562 0.573991 5.79707 0.0127003 6.79769L5.27454 6.80436L5.44163 0C5.29376 0.129486 3.47988 0.19042 0 0.182804Z"/><path id="shape14" transform="matrix(-1 0 0 1.0000000049 145.14727642 204.929998)" fill="#000000" fill-rule="evenodd" stroke="#000000" stroke-width="0.4176" stroke-linecap="square" stroke-linejoin="bevel" d="M0 6.97958L17.9114 7.08677L17.8488 0.0272153L0 0C0.212896 1.72082 0.212896 4.04734 0 6.97958Z"/><path id="shape15" transform="matrix(-1 0 0 1.0000000049 126.03238983 190.10497606)" fill="#000000" fill-rule="evenodd" stroke="#000000" stroke-width="0.4176" stroke-linecap="square" stroke-linejoin="bevel" d="M0 3.46311L0.221798 26.0945L38.6246 34.8307L59.236 33.3485L81.7168 23.0447L81.9228 0L78.3531 0.215416C78.1369 0.228463 78.1068 5.60539 78.2627 16.3462L74.4836 17.8116C74.8128 6.21662 74.7614 0.432169 74.3293 0.458243L70.3265 0.735165L70.6273 19.4312L66.771 21.0509L66.4613 0.980208L62.529 1.2295L62.9918 22.5934L57.6701 24.6758L58.2893 1.55398L51.7947 1.92523L52.4148 26.6256L48.2808 27.2457L47.3279 2.06461L40.9376 2.15198L41.1651 26.2183L33.9373 24.808L34.3159 2.52722L26.8858 2.94828L27.2383 23.3977L20.0105 21.4585L20.0105 3.12457C17.0793 3.17382 14.7875 3.23258 13.1353 3.30085L13.2455 20.3213L6.96521 18.9905L6.96521 3.12457C3.67721 3.30685 1.35548 3.4197 0 3.46311"/><path id="shape16" transform="matrix(-1 0 0 1.0000000049 127.04940893 177.56349164)" fill="#000000" fill-rule="evenodd" stroke="#000000" stroke-width="0.4176" stroke-linecap="square" stroke-linejoin="bevel" d="M0 13.8612L83.1902 11.0218C82.5074 8.58062 81.2669 7.25495 79.6847 6.61253L67.3929 6.69444C65.7889 3.08078 64.3056 -0.666939 58.7582 0.101016L34.6449 0.920075C28.9006 0.499906 28.9761 5.89955 26.8904 9.13796L2.33697 9.84781C0.817016 10.0991 0.0380244 11.4368 0 13.8612Z"/><path id="shape17" transform="matrix(-1 0 0 1.0000000049 119.73156835 131.17989018)" fill="#000000" fill-rule="evenodd" stroke="#000000" stroke-width="0.4176" stroke-linecap="square" stroke-linejoin="bevel" d="M51.7467 45.2635C53.7944 42.2974 55.9382 38.7342 55.7792 32.3101L63.8308 32.3532L63.8015 28.1453L55.7218 28.2113C55.0705 21.4582 53.4207 9.29668 38.036 5.36676L38.1456 0L32.5598 0.219051L32.6693 5.47628C15.1882 6.19596 8.57517 21.4418 8.21938 28.1175L0 28.673L0.0879818 33.5931L7.9037 33.4744C7.85801 43.3092 14.2593 49.4182 19.0774 50.8599C22.1736 43.5444 28.6064 45.6791 34.9112 45.1819L35.1469 22.553L29.42 22.5654L29.42 18.3401L35.1469 18.3401L35.2954 11.1424L39.6255 11.1208L39.6255 18.3401L44.9362 18.3401L44.9362 22.7813L39.6255 22.7887L39.5076 45.2997C39.5467 45.3085 43.7991 45.4394 51.7467 45.2635Z"/><path id="shape18" transform="matrix(-1 0 0 1.0000000049 152.16984431 133.69540099)" fill="#000000" fill-rule="evenodd" stroke="#000000" stroke-width="0.4176" stroke-linecap="square" stroke-linejoin="bevel" d="M10.4243 67.247L22.9343 67.1348C21.8661 52.2721 23.3136 50.4185 38.3031 50.5604C20.3701 27.9783 34.2581 6.51263 46.238 0C30.3166 4.99878 18.9441 8.56933 12.1206 10.7117C6.11384 13.8381 1.79384 19.9308 0.806098 27.6905L25.9436 19.7071L24.7412 25.2077L0.774266 31.9608C-0.703428 40.7071 0.243525 47.1061 1.0629 54.8377C6.67051 55.7709 9.8648 60.3924 10.4243 67.247Z"/><path id="shape20" transform="matrix(-1 0 0 1.0000000049 155.40997024 117.60812907)" fill="#000000" fill-rule="evenodd" stroke="#000000" stroke-width="0.4176" stroke-linecap="square" stroke-linejoin="bevel" d="M0.0787935 33.3877C4.28754 28.1451 7.75251 26.767 9.64814 26.6261C9.23814 20.0884 9.66542 15.2974 10.93 12.2531C19.5646 3.43714 28.1752 2.21026 36.7616 8.57249L36.2051 19.2391L41.283 17.4534L41.3553 8.06404C44.9828 3.71104 48.4082 3.63827 51.6315 7.84573C51.3936 4.37353 51.2847 1.75829 51.3046 0L0.480047 4.07681C0.236358 8.17922 -0.172512 14.7126 0.0787935 33.3877Z"/><path id="shape21" transform="matrix(-1 0 0 1.0000000049 155.35887016 104.49323373)" fill="#000000" fill-rule="evenodd" stroke="#000000" stroke-width="0.4176" stroke-linecap="square" stroke-linejoin="bevel" d="M50.9266 10.6631L0 14.788C4.12159 6.76672 7.70262 2.78715 14.7713 1.67394C33.2623 -1.15994 45.2413 -0.39563 50.7081 3.96688C50.7081 3.99918 50.3522 6.72307 50.9266 10.6631Z"/><path id="shape22" transform="matrix(-1 0 0 1.0000000049 102.79363109 99.411075525)" fill="#000000" fill-rule="evenodd" stroke="#000000" stroke-width="0.4176" stroke-linecap="square" stroke-linejoin="bevel" d="M0.335663 32.282C3.32321 29.1884 20.7495 28.1314 23.3897 29.4201L23.91 5.96486C16.7965 -1.52669 8.90131 -2.29886 0 5.57732Z"/><path id="shape23" transform="matrix(-1 0 0 1.0000000049 113.86905573 78.797100679)" fill="#000000" fill-rule="evenodd" stroke="#000000" stroke-width="0.4176" stroke-linecap="square" stroke-linejoin="bevel" d="M36.2838 24.5015C37.5894 22.8501 39.7654 20.0977 42.8118 16.2444L42.641 5.70613C29.4589 0.34521 16.2013 -4.56269 0.134359 7.38547L0 16.0668C4.18282 19.8146 7.17055 22.4916 8.96319 24.0978C18.0882 15.3858 29.1299 16.8199 36.2838 24.5015Z"/><path id="shape24" transform="matrix(-1 0 0 1.0000000049 76.3087754 106.92611111)" fill="#000000" fill-rule="evenodd" stroke="#000000" stroke-width="0.4176" stroke-linecap="square" stroke-linejoin="bevel" d="M22.833 60.3663C24.1649 56.6227 25.8736 51.3291 28.9814 42.5939L27.0305 35.9835L32.304 33.2414C31.0866 34.6435 27.4428 31.8894 24.5083 22.6141L29.7183 22.0737C26.2646 20.3646 23.7101 16.8569 21.3713 12.918L28.5336 11.6101C21.8958 7.74004 19.9148 3.87002 17.0094 0C13.9758 3.86712 10.7455 7.14427 6.59813 7.67007L11.1755 9.414C8.45538 12.4659 4.95001 13.1621 1.7182 14.679C3.84832 15.6371 4.65055 16.0412 6.78067 16.9993C3.92093 20.0603 1.7735 21.425 0 22.9848C12.3148 26.9863 24.1412 42.6258 22.833 60.3663Z"/><path id="shape25" transform="matrix(-1 0 0 1.0000000049 69.512246036 86.861773542)" fill="#000000" fill-rule="evenodd" stroke="#000000" stroke-width="0.4176" stroke-linecap="square" stroke-linejoin="bevel" d="M0 0L0.297719 9.98527C3.97542 10.2551 6.47657 11.2456 9.21736 11.2907L11.6971 13.7731L25.022 15.8498L22.3955 12.5948C17.0519 9.71593 9.44372 5.3579 0 0Z"/><path id="shape26" transform="matrix(-1 0 0 1.0000000049 188.65928302 58.038374142)" fill="#000000" fill-rule="evenodd" stroke="#000000" stroke-width="0.4176" stroke-linecap="square" stroke-linejoin="bevel" d="M0 38.5146C13.001 33.698 25.2188 27.0871 30.9995 26.3683C32.767 29.5162 31.8805 33.8894 30.7294 38.2153C35.6737 38.7522 46.6899 28.7483 54.6701 24.0148C56.6143 26.7386 57.5509 29.9299 58.5716 32.2581C61.257 29.7967 61.2984 28.0291 61.9769 26.0943L67.5951 29.7884C68.8476 27.9775 68.5844 24.7137 69.4539 20.9889C70.7438 20.8046 73.0082 22.0791 74.442 24.0856L79.0121 21.6133C75.8256 21.9147 70.6116 12.0427 71.3642 2.9831C69.0113 1.42632 67.0553 -0.805891 63.1417 0.293436C39.518 11.6313 23.0555 19.7937 15.9719 25.136"/><path id="shape27" transform="matrix(-1 0 0 1.0000000049 96.51347755 70.975256809)" fill="#000000" fill-rule="evenodd" stroke="#000000" stroke-width="0.4176" stroke-linecap="square" stroke-linejoin="bevel" d="M0 0.590495C6.67824 0.737527 9.11145 3.54947 9.48881 6.98114L12.1963 7.00349C11.7482 0.978761 7.68272 -1.1589 0 0.590495Z"/><path id="shape28" transform="matrix(-1 0 0 1.0000000049 85.13684472 67.70462451)" fill="#000000" fill-rule="evenodd" stroke="#000000" stroke-width="0.4176" stroke-linecap="square" stroke-linejoin="bevel" d="M13.96 9.31323C12.8275 0.140318 7.90882 1.76553 0 2.07352C10.4836 -2.59724 15.1254 0.967606 13.96 9.31323Z"/><path id="shape29" transform="matrix(-1 0 0 1.0000000049 104.48705645 55.323327699)" fill="#000000" fill-rule="evenodd" stroke="#000000" stroke-width="0.4176" stroke-linecap="square" stroke-linejoin="bevel" d="M0 6.433C3.23873 4.1851 4.64278 0.472462 12.8173 2.16513L13.0657 1.58416C5.91915 -1.60016 1.5639 0.016122 0 6.433Z"/><path id="shape30" transform="matrix(-1 0 0 1.0000000049 109.64791788 39.587072993)" fill="#000000" fill-rule="evenodd" stroke="#000000" stroke-width="0.4176" stroke-linecap="square" stroke-linejoin="bevel" d="M31.2088 14.3709C38.0895 11.2959 40.9133 20.1062 36.4346 26.7053C41.0455 23.5168 45.2201 14.71 32.5943 11.98C32.3664 9.57419 27.6138 -2.98319 18.1903 7.3255C13.208 -6.68614 1.4823 1.84428 0 12.5833C5.64221 4.28562 13.2356 -0.210902 16.8378 9.2623C27.6066 4.25074 29.8997 7.93665 31.2088 14.3709Z"/><path id="shape31" transform="matrix(-1 0 0 1.0000000049 115.73622122 54.68217812)" fill="#000000" fill-rule="evenodd" stroke="#000000" stroke-width="0.4176" stroke-linecap="square" stroke-linejoin="bevel" d="M8.57593 0.798836C4.07262 0.401663 1.67714 4.82409 1.38948 14.0661C-1.83815 2.45398 0.557329 -1.96845 8.57593 0.798836Z"/><path id="shape32" transform="matrix(-1 0 0 1.0000000049 111.81573831 66.75690515)" fill="#000000" fill-rule="evenodd" stroke="#000000" stroke-width="0.4176" stroke-linecap="square" stroke-linejoin="bevel" d="M0.0646561 10.1589C1.02676 5.07212 4.86037 1.98108 11.5655 0.885789C3.27867 -1.70459 -0.554943 1.38646 0.0646561 10.1589Z"/><path id="shape33" transform="matrix(-1 0 0 1.0000000049 88.64136727 59.959198449)" fill="#000000" fill-rule="evenodd" stroke="#000000" stroke-width="0.4176" stroke-linecap="square" stroke-linejoin="bevel" d="M0 3.26106C7.02472 2.56298 5.45838 -0.426293 12.6456 5.97562C9.91145 -0.951053 5.69626 -1.85591 0 3.26106Z"/><path id="shape34" transform="matrix(-1 0 0 1.0000000049 251.33984863 64.33862267)" fill="#000000" fill-rule="evenodd" stroke="#000000" stroke-width="0.4176" stroke-linecap="square" stroke-linejoin="bevel" d="M0 47.8389C2.53102 47.8774 -3.03727 52.105 15.1171 42.7859C24.3131 38.4358 36.7053 31.0958 47.4994 25.2507C44.7241 29.0643 41.9037 32.3398 39.2885 38.0621C45.9099 34.8251 58.3948 23.4341 65.6718 23.8336L63.7781 28.4142C64.1721 29.2437 74.5829 19.4295 81.0912 15.3021C86.2113 11.4235 92.2533 9.11414 97.8473 6.08364C90.1523 2.18876 83.4675 1.05603 76.8107 0C39.6354 19.2451 14.0319 35.1914 0 47.8389Z"/><path id="shape0111" transform="matrix(1 0 0 1.0000000049 55.973397783 110.30157678)" fill="none" stroke="#000000" stroke-width="0.0504" stroke-linecap="square" stroke-linejoin="miter" stroke-miterlimit="2" d="M1.07938 0L0 1.85036"/><text id="shape01" transform="matrix(1 0 0 1.0000000049 120 25.063549453)" fill="#000000" font-family="Stencil" font-size="20" font-size-adjust="0.210526"><tspan x="0">VBS</tspan></text><path id="shape011" transform="matrix(0.86092270329 0.50873578144 -0.50873577396 0.86092270777 221.04345856 47.335505273)" fill="#000000" fill-rule="evenodd" d="M4.58789 0.0395L4.58789 1.437C4.3418 1.4897 4.14185 1.5644 3.98804 1.6611C3.83423 1.7578 3.76172 1.8545 3.77051 1.9511C3.78809 2.0742 3.90674 2.206 4.12647 2.3467C4.52197 2.6191 4.80762 2.9135 4.9834 3.23C5.15918 3.5464 5.24707 3.9287 5.24707 4.3769C5.24707 5.0449 4.99439 5.6206 4.48901 6.104C3.98364 6.5874 3.38818 6.8291 2.70264 6.8291C1.95557 6.8291 1.33154 6.572 0.83057 6.0578C0.32959 5.5437 0.0791 4.9043 0.0791 4.1396C0.0791 3.4189 0.29663 2.7466 0.73169 2.1225C1.16675 1.4985 1.75781 1.0063 2.50488 0.646C2.97949 0.4175 3.67383 0.2153 4.58789 0.0395M5.74805 1.437L5.74805 0L6.104 0C7.01807 0 7.89038 0.1516 8.72095 0.4548C9.55151 0.758 10.2436 1.1777 10.7974 1.7138C11.729 2.6191 12.1948 3.7617 12.1948 5.1416C12.1948 6.3281 11.8454 7.3806 11.1467 8.29905C10.448 9.2175 9.45701 9.93601 8.17383 10.4546L6.44678 11.1401C5.9458 11.3423 5.23828 11.6938 4.32422 12.1948L3.92871 12.4189C3.57715 12.4189 3.23877 12.4651 2.91357 12.5573C2.58838 12.6496 2.11816 12.8276 1.50293 13.0913C1.81934 12.6694 2.13794 12.3047 2.45874 11.997C2.77954 11.6894 3.26074 11.2851 3.90234 10.7842C4.72852 10.1425 5.28442 9.67893 5.57007 9.39328C5.85571 9.10764 6.09961 8.77585 6.30176 8.39792C6.50391 8.0112 6.65112 7.5564 6.74341 7.0334C6.83569 6.5105 6.88184 5.8491 6.88184 5.0493C6.88184 3.643 6.75879 2.6938 6.5127 2.2016C6.41602 2.0083 6.31274 1.8589 6.20288 1.7534C6.09302 1.6479 5.94141 1.5425 5.74805 1.437M12.0893 12.3662C12.2827 12.3574 12.4431 12.4365 12.5705 12.6035C12.698 12.7705 12.7617 12.9902 12.7617 13.2627C12.7617 13.8691 12.6013 14.5481 12.2805 15.2995C11.9597 16.051 11.5752 16.6552 11.1269 17.1123C10.7402 17.5078 10.2612 17.8286 9.68991 18.0747C9.11861 18.3208 8.57813 18.4438 8.06836 18.4438C7.45313 18.4438 6.80274 18.3427 6.11719 18.1406L4.37695 17.6264C3.40137 17.3452 2.76856 17.2046 2.47852 17.2046C2.0918 17.2046 1.68311 17.3891 1.25244 17.7583C0.97998 17.9868 0.77344 18.101 0.63281 18.101C0.43066 18.101 0.27466 18.0351 0.1648 17.9033C0.05493 17.7715 0 17.5825 0 17.3364C0 16.8618 0.10986 16.3784 0.32959 15.8862C0.54932 15.394 0.84815 14.9634 1.22607 14.5942C2.02588 13.812 3.11572 13.4209 4.49561 13.4209C5.13721 13.4209 6.00293 13.522 7.09277 13.7241C8.68359 14.0229 9.72071 14.1723 10.2041 14.1723C10.626 14.1723 10.938 14.0669 11.1401 13.8559C11.2104 13.7768 11.2654 13.6867 11.3049 13.5857C11.3445 13.4846 11.395 13.3022 11.4565 13.0386C11.5532 12.6079 11.7642 12.3838 12.0893 12.3662M22.0381 18.4438C21.1152 18.3296 20.2956 18.0681 19.5793 17.6594C18.863 17.2507 18.1973 16.6596 17.582 15.8862C16.9053 15.0424 16.3911 14.0537 16.0395 12.9199C15.688 11.7861 15.5122 10.5512 15.5122 9.21531C15.5122 7.8882 15.688 6.6577 16.0395 5.5239C16.3911 4.3901 16.9053 3.4013 17.582 2.5576C18.1973 1.7842 18.863 1.1931 19.5793 0.7844C20.2956 0.3757 21.1152 0.1142 22.0381 0L22.0381 1.3711C21.792 1.4502 21.6206 1.5183 21.5239 1.5754C21.4272 1.6325 21.335 1.7182 21.2471 1.8325C20.9922 2.1577 20.8647 2.6279 20.8647 3.2431L20.8647 15.2007C20.8647 15.8159 20.9922 16.2861 21.2471 16.6113C21.335 16.7256 21.4272 16.8113 21.5239 16.8684C21.6206 16.9255 21.792 16.9936 22.0381 17.0727L22.0381 18.4438M23.0532 18.4438L23.0532 17.0727C23.2993 16.9936 23.4707 16.9255 23.5674 16.8684C23.6641 16.8113 23.7563 16.7256 23.8442 16.6113C24.0991 16.2861 24.2266 15.8159 24.2266 15.2007L24.2266 3.2431C24.2266 2.6279 24.0991 2.1577 23.8442 1.8325C23.7563 1.7182 23.6641 1.6325 23.5674 1.5754C23.4707 1.5183 23.2993 1.4502 23.0532 1.3711L23.0532 0C23.9761 0.1142 24.7956 0.3757 25.512 0.7844C26.2283 1.1931 26.894 1.7842 27.5093 2.5576C28.186 3.4013 28.7002 4.3901 29.0517 5.5239C29.4033 6.6577 29.5791 7.8882 29.5791 9.21531C29.5791 10.5512 29.4033 11.7861 29.0517 12.9199C28.7002 14.0537 28.186 15.0424 27.5093 15.8862C26.894 16.6596 26.2283 17.2507 25.512 17.6594C24.7956 18.0681 23.9761 18.3296 23.0532 18.4438M36.5879 0.0395L36.5879 1.437C36.3418 1.4897 36.1418 1.5644 35.988 1.6611C35.8342 1.7578 35.7617 1.8545 35.7705 1.9511C35.7881 2.0742 35.9067 2.206 36.1265 2.3467C36.522 2.6191 36.8076 2.9135 36.9834 3.23C37.1592 3.5464 37.2471 3.9287 37.2471 4.3769C37.2471 5.0449 36.9944 5.6206 36.489 6.104C35.9836 6.5874 35.3882 6.8291 34.7026 6.8291C33.9556 6.8291 33.3315 6.572 32.8306 6.0578C32.3296 5.5437 32.0791 4.9043 32.0791 4.1396C32.0791 3.4189 32.2966 2.7466 32.7317 2.1225C33.1667 1.4985 33.7578 1.0063 34.5049 0.646C34.9795 0.4175 35.6738 0.2153 36.5879 0.0395M37.748 1.437L37.748 0L38.104 0C39.0181 0 39.8904 0.1516 40.7209 0.4548C41.5515 0.758 42.2436 1.1777 42.7974 1.7138C43.729 2.6191 44.1948 3.7617 44.1948 5.1416C44.1948 6.3281 43.8454 7.3806 43.1467 8.29905C42.448 9.2175 41.457 9.93601 40.1738 10.4546L38.4468 11.1401C37.9458 11.3423 37.2383 11.6938 36.3242 12.1948L35.9287 12.4189C35.5771 12.4189 35.2388 12.4651 34.9136 12.5573C34.5884 12.6496 34.1182 12.8276 33.5029 13.0913C33.8193 12.6694 34.1379 12.3047 34.4587 11.997C34.7795 11.6894 35.2607 11.2851 35.9023 10.7842C36.7285 10.1425 37.2844 9.67893 37.5701 9.39328C37.8557 9.10764 38.0996 8.77585 38.3017 8.39792C38.5039 8.0112 38.6511 7.5564 38.7434 7.0334C38.8357 6.5105 38.8818 5.8491 38.8818 5.0493C38.8818 3.643 38.7588 2.6938 38.5127 2.2016C38.416 2.0083 38.3127 1.8589 38.2029 1.7534C38.093 1.6479 37.9414 1.5425 37.748 1.437M44.0893 12.3662C44.2827 12.3574 44.4431 12.4365 44.5705 12.6035C44.698 12.7705 44.7617 12.9902 44.7617 13.2627C44.7617 13.8691 44.6013 14.5481 44.2805 15.2995C43.9597 16.051 43.5752 16.6552 43.1269 17.1123C42.7402 17.5078 42.2612 17.8286 41.6899 18.0747C41.1186 18.3208 40.5781 18.4438 40.0684 18.4438C39.4531 18.4438 38.8027 18.3427 38.1172 18.1406L36.3769 17.6264C35.4014 17.3452 34.7685 17.2046 34.4785 17.2046C34.0918 17.2046 33.6831 17.3891 33.2524 17.7583C32.98 17.9868 32.7734 18.101 32.6328 18.101C32.4307 18.101 32.2746 18.0351 32.1648 17.9033C32.0549 17.7715 32 17.5825 32 17.3364C32 16.8618 32.1099 16.3784 32.3296 15.8862C32.5493 15.394 32.8481 14.9634 33.2261 14.5942C34.0259 13.812 35.1157 13.4209 36.4956 13.4209C37.1372 13.4209 38.0029 13.522 39.0928 13.7241C40.6836 14.0229 41.7207 14.1723 42.2041 14.1723C42.626 14.1723 42.938 14.0669 43.1401 13.8559C43.2104 13.7768 43.2654 13.6867 43.3049 13.5857C43.3445 13.4846 43.395 13.3022 43.4565 13.0386C43.5532 12.6079 43.7642 12.3838 44.0893 12.3662M54.0381 18.4438C53.1152 18.3296 52.2956 18.0681 51.5793 17.6594C50.863 17.2507 50.1973 16.6596 49.582 15.8862C48.9053 15.0424 48.3911 14.0537 48.0395 12.9199C47.688 11.7861 47.5122 10.5512 47.5122 9.21531C47.5122 7.8882 47.688 6.6577 48.0395 5.5239C48.3911 4.3901 48.9053 3.4013 49.582 2.5576C50.1973 1.7842 50.863 1.1931 51.5793 0.7844C52.2956 0.3757 53.1152 0.1142 54.0381 0L54.0381 1.3711C53.792 1.4502 53.6206 1.5183 53.5239 1.5754C53.4272 1.6325 53.335 1.7182 53.2471 1.8325C52.9922 2.1577 52.8647 2.6279 52.8647 3.2431L52.8647 15.2007C52.8647 15.8159 52.9922 16.2861 53.2471 16.6113C53.335 16.7256 53.4272 16.8113 53.5239 16.8684C53.6206 16.9255 53.792 16.9936 54.0381 17.0727L54.0381 18.4438M55.0532 18.4438L55.0532 17.0727C55.2993 16.9936 55.4707 16.9255 55.5674 16.8684C55.6641 16.8113 55.7563 16.7256 55.8442 16.6113C56.0991 16.2861 56.2266 15.8159 56.2266 15.2007L56.2266 3.2431C56.2266 2.6279 56.0991 2.1577 55.8442 1.8325C55.7563 1.7182 55.6641 1.6325 55.5674 1.5754C55.4707 1.5183 55.2993 1.4502 55.0532 1.3711L55.0532 0C55.9761 0.1142 56.7956 0.3757 57.512 0.7844C58.2283 1.1931 58.894 1.7842 59.5093 2.5576C60.186 3.4013 60.7002 4.3901 61.0517 5.5239C61.4033 6.6577 61.5791 7.8882 61.5791 9.21531C61.5791 10.5512 61.4033 11.7861 61.0517 12.9199C60.7002 14.0537 60.186 15.0424 59.5093 15.8862C58.894 16.6596 58.2283 17.2507 57.512 17.6594C56.7956 18.0681 55.9761 18.3296 55.0532 18.4438"/><path id="shape02" transform="matrix(0.84732542547 -0.53107407628 0.53107404896 0.84732539012 16.579560514 76.843176951)" fill="#000000" fill-rule="evenodd" d="M7.7915 0.0131L7.7915 1.6084C7.27295 1.6875 6.88623 1.916 6.63135 2.2939C6.37646 2.6718 6.24902 3.2124 6.24902 3.9155L6.24902 14.8051L6.24902 15.372C6.24902 15.5742 6.29077 15.7873 6.37426 16.0114C6.45776 16.2355 6.56543 16.4267 6.69726 16.5849C6.83789 16.7607 6.9873 16.8859 7.14551 16.9606C7.30371 17.0353 7.51904 17.0859 7.7915 17.1123L7.7915 18.7207C6.08642 18.7207 4.60547 18.2768 3.34863 17.3891C2.24121 16.6069 1.40625 15.5544 0.843753 14.2316C0.28125 12.9089 0 11.3422 0 9.53169C0 8.2045 0.182373 6.9675 0.547123 5.8205C0.911863 4.6735 1.4414 3.6782 2.13574 2.8344C2.83886 1.9819 3.68042 1.2963 4.6604 0.7778C5.64038 0.2592 6.58301 0 7.48828 0L7.7915 0.0131M8.83301 1.6215L8.83301 0.0263C9.26367 0.0966 9.61307 0.1713 9.88107 0.2504C10.1492 0.3295 10.6348 0.4965 11.3379 0.7514C11.7862 0.9096 12.085 0.9887 12.2344 0.9887C12.4893 0.9887 12.6826 0.8745 12.8145 0.6459L12.9859 0.3295C13.0913 0.1186 13.2891 0.0131 13.5791 0.0131C13.8164 0.0131 13.9988 0.0834 14.1262 0.2241C14.2537 0.3647 14.3174 0.5712 14.3174 0.8437L14.3174 6.3281C14.3174 6.6796 14.2383 6.9345 14.0801 7.0927C13.9219 7.2509 13.7417 7.33 13.5396 7.33C13.3286 7.33 13.1595 7.2619 13.032 7.1257C12.9046 6.9895 12.8013 6.7675 12.7222 6.4599C12.5376 5.7656 12.3574 5.2207 12.1817 4.8251C11.8037 3.9902 11.3731 3.3134 10.8897 2.7949C10.5645 2.4433 10.2393 2.173 9.91407 1.9841C9.58887 1.7951 9.22851 1.6743 8.83301 1.6215M8.87256 18.7207L8.87256 17.1123C9.55807 17.0595 10.2788 16.8002 11.0347 16.3344C11.439 16.0795 11.7993 15.739 12.1158 15.3127C12.4322 14.8864 12.6695 14.4184 12.8277 13.9086C12.9156 13.6274 13.0188 13.4274 13.1375 13.3088C13.2561 13.1901 13.4121 13.1308 13.6055 13.1308C13.8164 13.1308 13.9922 13.2099 14.1328 13.3681C14.2735 13.5263 14.3438 13.7241 14.3438 13.9614C14.3438 14.3569 14.1922 14.8359 13.8889 15.3984C13.5857 15.9609 13.1968 16.4794 12.7222 16.9541C12.1421 17.5341 11.5467 17.9648 10.9358 18.246C10.325 18.5273 9.63717 18.6855 8.87256 18.7207M23.7388 0.3691L23.7388 18.3647L17.8721 18.3647L17.5293 18.3647C17.2129 18.3647 16.969 18.3054 16.7976 18.1867C16.6262 18.0681 16.5406 17.8989 16.5406 17.6792C16.5406 17.3188 16.7163 17.0815 17.0679 16.9672C17.3579 16.8706 17.5271 16.8112 17.5755 16.7893C17.6238 16.7673 17.6743 16.7167 17.7271 16.6377C17.8325 16.497 17.8853 16.2729 17.8853 15.9653L17.8853 2.7685C17.8853 2.4609 17.8325 2.2368 17.7271 2.0961C17.6743 2.017 17.6238 1.9665 17.5755 1.9445C17.5271 1.9226 17.3579 1.8632 17.0679 1.7666C16.7163 1.6523 16.5406 1.415 16.5406 1.0546C16.5406 0.8349 16.6262 0.6657 16.7976 0.5471C16.969 0.4284 17.2129 0.3691 17.5293 0.3691L17.8721 0.3691L23.7388 0.3691M27.8389 9.0439C28.6299 9.2021 29.2386 9.35591 29.6648 9.50532C30.0911 9.65474 30.4756 9.8437 30.8184 10.0722C31.4073 10.4501 31.8577 10.9489 32.1697 11.5686C32.4817 12.1882 32.6377 12.8803 32.6377 13.645C32.6377 15.1479 32.084 16.3212 30.9766 17.165C30.4053 17.6044 29.7747 17.9143 29.0847 18.0944C28.3948 18.2746 27.4917 18.3647 26.3755 18.3647L24.8067 18.3647L24.8067 16.9804C25.1582 16.9541 25.4351 16.9035 25.6372 16.8288C25.8394 16.7541 26.0196 16.6289 26.1778 16.4531C26.4678 16.1279 26.6128 15.6225 26.6128 14.937L26.6128 11.9443C26.6128 11.5048 26.5755 11.1621 26.5008 10.916C26.4261 10.6699 26.2876 10.4458 26.0855 10.2436C25.9361 10.0854 25.7735 9.97115 25.5977 9.90083C25.4219 9.83052 25.1714 9.77339 24.8462 9.72945L24.8462 8.3584C25.1714 8.332 25.4241 8.288 25.6043 8.2265C25.7845 8.165 25.9492 8.0639 26.0987 7.9233C26.2393 7.7915 26.3579 7.6201 26.4546 7.4091C26.5513 7.1982 26.604 7.0048 26.6128 6.8291L26.6128 6.104L26.6128 3.8232C26.6128 3.5859 26.5733 3.3376 26.4942 3.0783C26.4151 2.819 26.3184 2.6147 26.2041 2.4653C26.0371 2.2631 25.8504 2.1137 25.6438 2.017C25.4373 1.9204 25.1582 1.8544 24.8067 1.8193L24.8067 0.3691L26.3228 0.3691C28.3267 0.3691 29.856 0.7822 30.9107 1.6084C31.3941 1.9863 31.7632 2.4433 32.0181 2.9794C32.273 3.5156 32.4004 4.0957 32.4004 4.7197C32.4004 5.3349 32.2708 5.915 32.0115 6.4599C31.7522 7.0048 31.3897 7.4575 30.9239 7.8178C30.5811 8.0991 30.1856 8.3276 29.7373 8.50337C29.2891 8.67915 28.6563 8.85933 27.8389 9.0439M41.7915 0.0131L41.7915 1.6084C41.273 1.6875 40.8863 1.916 40.6314 2.2939C40.3765 2.6718 40.2491 3.2124 40.2491 3.9155L40.2491 14.8051L40.2491 15.372C40.2491 15.5742 40.2908 15.7873 40.3743 16.0114C40.4578 16.2355 40.5655 16.4267 40.6973 16.5849C40.8379 16.7607 40.9873 16.8859 41.1455 16.9606C41.3037 17.0353 41.5191 17.0859 41.7915 17.1123L41.7915 18.7207C40.0865 18.7207 38.6055 18.2768 37.3487 17.3891C36.2412 16.6069 35.4063 15.5544 34.8438 14.2316C34.2813 12.9089 34 11.3422 34 9.53169C34 8.2045 34.1824 6.9675 34.5471 5.8205C34.9119 4.6735 35.4414 3.6782 36.1358 2.8344C36.8389 1.9819 37.6804 1.2963 38.6604 0.7778C39.6404 0.2592 40.583 0 41.4883 0L41.7915 0.0131M42.833 1.6215L42.833 0.0263C43.2637 0.0966 43.6131 0.1713 43.8811 0.2504C44.1492 0.3295 44.6348 0.4965 45.3379 0.7514C45.7862 0.9096 46.085 0.9887 46.2344 0.9887C46.4893 0.9887 46.6826 0.8745 46.8145 0.6459L46.9859 0.3295C47.0913 0.1186 47.2891 0.0131 47.5791 0.0131C47.8164 0.0131 47.9988 0.0834 48.1262 0.2241C48.2537 0.3647 48.3174 0.5712 48.3174 0.8437L48.3174 6.3281C48.3174 6.6796 48.2383 6.9345 48.0801 7.0927C47.9219 7.2509 47.7417 7.33 47.5396 7.33C47.3286 7.33 47.1595 7.2619 47.032 7.1257C46.9046 6.9895 46.8013 6.7675 46.7222 6.4599C46.5376 5.7656 46.3574 5.2207 46.1817 4.8251C45.8037 3.9902 45.3731 3.3134 44.8897 2.7949C44.5645 2.4433 44.2393 2.173 43.9141 1.9841C43.5889 1.7951 43.2285 1.6743 42.833 1.6215M42.8726 18.7207L42.8726 17.1123C43.5581 17.0595 44.2788 16.8002 45.0347 16.3344C45.439 16.0795 45.7993 15.739 46.1158 15.3127C46.4322 14.8864 46.6695 14.4184 46.8277 13.9086C46.9156 13.6274 47.0188 13.4274 47.1375 13.3088C47.2561 13.1901 47.4121 13.1308 47.6055 13.1308C47.8164 13.1308 47.9922 13.2099 48.1328 13.3681C48.2735 13.5263 48.3438 13.7241 48.3438 13.9614C48.3438 14.3569 48.1922 14.8359 47.8889 15.3984C47.5857 15.9609 47.1968 16.4794 46.7222 16.9541C46.1421 17.5341 45.5467 17.9648 44.9358 18.246C44.325 18.5273 43.6372 18.6855 42.8726 18.7207"/><path id="shape03" transform="matrix(1 0 0 1.0000000049 40.153311297 226.86919178)" fill="#000000" fill-rule="evenodd" d="M7.19824 0.369141L7.19824 15.8599L7.24768 16.3015L7.396 16.5981L7.49817 16.7053L7.59375 16.7629L7.7915 16.8206L8.2002 16.9277L8.6748 17.1815L8.83301 17.6528L8.74731 17.9626L8.49023 18.2065L8.15735 18.3252L7.65967 18.3647L0.98877 18.3647L0.568542 18.3203L0.25708 18.1868L0.06427 17.9709L0 17.6792L0.131836 17.231L0.527344 16.9673L0.871765 16.8503L1.03491 16.7893L1.10907 16.7349L1.18652 16.6377L1.30518 16.3641L1.34473 15.9653L1.34473 2.76855L1.30518 2.36975L1.18652 2.09619L1.10907 1.99896L1.03491 1.94458L0.871765 1.88361L0.527344 1.7666L0.131836 1.50293L0 1.05469L0.06427 0.763L0.25708 0.547119L0.568542 0.413635L0.98877 0.369141L7.19824 0.369141M11.2456 9.54492L12.3184 9.73938L13.1111 9.95361L13.7324 10.2173L14.291 10.5601L14.7805 11.0083L15.1414 11.5356L15.3638 12.119L15.438 12.7354L15.438 15.4644L15.5072 15.7808L15.7148 15.8862L15.8121 15.8714L15.8928 15.8269L15.9802 15.7396L16.0972 15.5962L16.4301 15.26L16.7695 15.1479L16.9937 15.2073L17.2178 15.3853L17.3859 15.6226L17.4419 15.8599L17.3447 16.313L17.053 16.8552L16.6163 17.4106L16.084 17.9033L15.5204 18.2774L14.9106 18.5295L14.2218 18.6729L13.4209 18.7207L11.8718 18.4719L10.7051 17.7253L9.97339 16.5339L9.72949 14.9502L9.72949 12.7354L9.7262 12.152L9.71631 11.8784L9.59106 11.3873L9.34717 10.9688L8.88245 10.6029L8.25293 10.4282L8.25293 9.01758L8.86267 8.87256L9.26807 8.64844L9.49054 8.39465L9.63062 8.10791L9.70477 7.73218L9.72949 7.21143L9.72949 3.71777L9.64874 2.99268L9.40649 2.47852L8.95331 2.11267L8.23975 1.83252L8.23975 0.369141L8.58252 0.369141L9.93713 0.395508L11.0742 0.474609L12.5211 0.797607L13.8032 1.47656L15.0985 2.96301L15.5303 4.97021L15.2402 6.66101L14.3701 8.01563L13.8411 8.47046L13.2297 8.83301L12.4074 9.16919L11.2456 9.54492M25.9346 1.43701L25.3611 1.71716L24.9854 2.08301L24.7777 2.58728L24.7085 3.28271L24.7085 15.0688L24.7876 16.0576L25.0249 16.7036L25.3776 17.0431L25.9346 17.2705L25.9346 18.7207L24.5305 18.4941L23.2451 18.0516L22.0784 17.3933L21.0303 16.519L20.2448 15.6105L19.6021 14.5898L19.1022 13.4572L18.7451 12.2124L18.5309 10.8556L18.4595 9.38672L18.5349 7.90649L18.7612 6.52441L19.1384 5.24048L19.9805 3.52826L21.1489 2.09619L22.2036 1.22607L23.3374 0.593262L24.5734 0.191162L25.9346 0.0131836L25.9346 1.43701M27.0156 1.43701L27.0156 0.0131836L28.3785 0.191162L29.6194 0.593262L30.7581 1.22607L31.8145 2.09619L32.6362 3.02747L33.3086 4.07227L33.8315 5.23059L34.2051 6.50244L34.4292 7.88782L34.5039 9.38672L34.4325 10.8556L34.2183 12.2124L33.8612 13.4572L33.3613 14.5898L32.7186 15.6105L31.9331 16.519L30.8842 17.3982L29.715 18.0582L28.4254 18.4991L27.0156 18.7207L27.0156 17.2705L27.3205 17.1799L27.5496 17.0662L27.7325 16.9129L27.8989 16.7036L28.1659 16.0247L28.2549 15.0688L28.2549 3.28271L28.1956 2.65649L28.0176 2.17529L27.8445 1.9281L27.6418 1.74023L27.3765 1.58533L27.0156 1.43701M43.251 0.0131836L43.251 1.6084L42.572 1.83911L42.0908 2.29395L41.8041 2.98279L41.7085 3.91553L41.7085 15.3721L41.7398 15.6835L41.8337 16.0115L41.9771 16.3229L42.1567 16.585L42.3743 16.8107L42.605 16.9607L42.8851 17.0546L43.251 17.1123L43.251 18.7207L41.6206 18.5728L40.1396 18.1289L38.8081 17.3892L37.3513 16.0131L36.3032 14.2317L35.8345 12.8276L35.5532 11.261L35.4595 9.53174L35.5963 7.60858L36.0066 5.82056L36.6773 4.21381L37.5952 2.83447L38.7537 1.68091L40.1199 0.777832L41.5618 0.194458L42.9478 0L43.251 0.0131836M44.2925 1.62158L44.2925 0.0263672L44.8775 0.135132L45.3406 0.250488L45.9058 0.435059L46.7974 0.751465L47.3577 0.929443L47.6938 0.98877L48.03 0.903076L48.2739 0.645996L48.4453 0.32959L48.6727 0.0922852L49.0386 0.0131836L49.3533 0.065918L49.5857 0.224121L49.7291 0.484497L49.7769 0.84375L49.7769 6.32813L49.7175 6.78296L49.5396 7.09277L49.2858 7.27075L48.999 7.33008L48.7139 7.27899L48.4915 7.12573L48.3184 6.85712L48.1816 6.45996L47.9081 5.53052L47.6411 4.8252L47.0347 3.69141L46.3491 2.79492L45.8613 2.32855L45.3735 1.98413L44.8594 1.75177L44.2925 1.62158M44.332 18.7207L44.332 17.1123L45.3867 16.8783L46.4941 16.3345L47.0676 15.8879L47.5752 15.3127L47.9905 14.642L48.2871 13.9087L48.4305 13.5478L48.5969 13.3088L48.8029 13.1754L49.0649 13.1309L49.355 13.1902L49.5923 13.3682L49.7505 13.6351L49.8032 13.9614L49.6895 14.6173L49.3484 15.3984L48.8293 16.2092L48.1816 16.9541L47.3 17.7122L46.3953 18.2461L45.4213 18.5757L44.332 18.7207M59.4883 18.3647L53.2656 18.3647L52.8454 18.3203L52.5339 18.1868L52.3411 17.9709L52.2769 17.6792L52.4087 17.231L52.8042 16.9673L53.1486 16.8503L53.3118 16.7893L53.3859 16.7349L53.4634 16.6377L53.582 16.3641L53.6216 15.9653L53.6216 2.76855L53.582 2.36975L53.4634 2.09619L53.3859 1.99896L53.3118 1.94458L53.1486 1.88361L52.8042 1.7666L52.4087 1.50293L52.2769 1.05469L52.3411 0.763L52.5339 0.547119L52.8454 0.413635L53.2656 0.369141L59.8311 0.369141L60.2513 0.413635L60.5627 0.547119L60.7556 0.763L60.8198 1.05469L60.688 1.50293L60.2925 1.7666L59.9481 1.88361L59.7849 1.94458L59.7108 1.99896L59.6333 2.09619L59.5146 2.36975L59.4751 2.76855L59.4751 15.9653L59.5707 16.552L59.8574 16.8354L60.2661 16.9673L60.6418 17.2244L60.7671 17.6792L60.5331 18.1934L59.8311 18.3647L59.4883 18.3647M64.709 5.58984L68.6904 16.0049L68.8519 16.3757L69.02 16.6443L69.2178 16.8371L69.4683 16.9805L69.6957 17.0958L69.8242 17.1782L69.9626 17.3925L70.0088 17.666L69.7616 18.1901L69.02 18.3647L62.3887 18.3647L61.9684 18.3153L61.657 18.167L61.4642 17.9264L61.3999 17.6001L61.5219 17.2244L61.8877 16.9409L62.1415 16.8074L62.2964 16.697L62.3788 16.58L62.415 16.4268L62.3887 16.2751L62.3096 16.0049L60.6221 10.9688L60.4441 10.3228L60.3848 9.78223L60.4803 9.30103L60.7671 8.78027L63.918 4.3374L64.2542 3.70459L64.3662 3.04541L64.3168 2.68945L64.1685 2.35986L63.9377 2.0896L63.6411 1.91162L63.1665 1.71387L62.8303 1.46667L62.7183 1.09424L62.7875 0.77124L62.9951 0.51416L63.239 0.405396L63.6016 0.369141L68.2949 0.369141L68.7053 0.420227L69.0134 0.573486L69.2062 0.819031L69.2705 1.14697L69.1189 1.62158L68.6641 1.93799L67.9653 2.21484L67.4709 2.47192L66.8579 2.92676L66.2976 3.49036L65.6187 4.3374L64.709 5.58984M81.7427 10.1118L81.7427 15.8599L81.7921 16.3015L81.9404 16.5981L82.0426 16.7053L82.1382 16.7629L82.3359 16.8206L82.7446 16.9277L83.2192 17.1815L83.3774 17.6528L83.2885 17.989L83.0215 18.2329L82.7117 18.3318L82.2041 18.3647L75.4409 18.3647L74.9366 18.3252L74.6104 18.2065L74.3533 17.9626L74.2676 17.6528L74.4258 17.1815L74.9004 16.9277L75.3091 16.8206L75.5068 16.7629L75.5991 16.7053L75.6914 16.5981L75.8397 16.3015L75.8892 15.8599L75.8892 11.4038L72.1582 2.50488L71.9044 2.07312L71.5649 1.77979L71.2733 1.57874L71.1101 1.42383L71.0359 1.26563L71.0112 1.05469L71.2617 0.540527L72.0132 0.369141L78.4731 0.369141L78.9082 0.398804L79.1851 0.487793L79.4323 0.731689L79.5146 1.0415L79.4191 1.41724L79.1323 1.70068L78.75 1.93799L78.5819 2.11926L78.5259 2.37305L78.5621 2.69934L78.6709 3.01904L81.7427 10.1118M82.2568 8.85938L81.5186 7.13232L82.9028 4.03418L83.0314 3.56616L83.0742 2.95313L82.8633 2.29724L82.2305 1.85889L81.8498 1.68585L81.6306 1.53589L81.5268 1.35956L81.4922 1.10742L81.5515 0.794312L81.7295 0.566895L81.8976 0.468018L82.0854 0.408691L82.3557 0.379028L82.771 0.369141L86.0273 0.369141L86.7195 0.553711L86.9502 1.10742L86.9189 1.34143L86.825 1.51611L86.642 1.66443L86.3438 1.81934L85.79 2.10938L85.4209 2.39941L85.0583 2.85095L84.7617 3.36182L84.4585 4.03418L82.2568 8.85938M102.198 0.369141L102.198 15.8599L102.248 16.3015L102.396 16.5981L102.498 16.7053L102.594 16.7629L102.792 16.8206L103.2 16.9277L103.675 17.1815L103.833 17.6528L103.747 17.9626L103.49 18.2065L103.157 18.3252L102.66 18.3647L95.9888 18.3647L95.5685 18.3203L95.2571 18.1868L95.0643 17.9709L95 17.6792L95.1318 17.231L95.5273 16.9673L95.8718 16.8503L96.0349 16.7893L96.1091 16.7349L96.1865 16.6377L96.3052 16.3641L96.3447 15.9653L96.3447 2.76855L96.3052 2.36975L96.1865 2.09619L96.1091 1.99896L96.0349 1.94458L95.8718 1.88361L95.5273 1.7666L95.1318 1.50293L95 1.05469L95.0643 0.763L95.2571 0.547119L95.5685 0.413635L95.9888 0.369141L102.198 0.369141M106.246 9.54492L107.318 9.73938L108.111 9.95361L108.732 10.2173L109.291 10.5601L109.78 11.0083L110.141 11.5356L110.364 12.119L110.438 12.7354L110.438 15.4644L110.507 15.7808L110.715 15.8862L110.812 15.8714L110.893 15.8269L110.98 15.7396L111.097 15.5962L111.43 15.26L111.77 15.1479L111.994 15.2073L112.218 15.3853L112.386 15.6226L112.442 15.8599L112.345 16.313L112.053 16.8552L111.616 17.4106L111.084 17.9033L110.52 18.2774L109.911 18.5295L109.222 18.6729L108.421 18.7207L106.872 18.4719L105.705 17.7253L104.973 16.5339L104.729 14.9502L104.729 12.7354L104.726 12.152L104.716 11.8784L104.591 11.3873L104.347 10.9688L103.882 10.6029L103.253 10.4282L103.253 9.01758L103.863 8.87256L104.268 8.64844L104.491 8.39465L104.631 8.10791L104.705 7.73218L104.729 7.21143L104.729 3.71777L104.649 2.99268L104.406 2.47852L103.953 2.11267L103.24 1.83252L103.24 0.369141L103.583 0.369141L104.937 0.395508L106.074 0.474609L107.521 0.797607L108.803 1.47656L110.099 2.96301L110.53 4.97021L110.24 6.66101L109.37 8.01563L108.841 8.47046L108.23 8.83301L107.407 9.16919L106.246 9.54492M119.287 0.369141L124.6 0.369141L128.265 15.8599L128.377 16.2455L128.502 16.585L128.693 16.8124L129.029 16.9937L129.319 17.1387L129.504 17.2837L129.603 17.4551L129.636 17.6792L129.379 18.1934L128.607 18.3647L122.029 18.3647L121.673 18.317L121.396 18.1736L121.218 17.9511L121.159 17.666L121.185 17.4353L121.264 17.2705L121.436 17.1222L121.739 16.9409L121.963 16.8025L122.108 16.6509L122.187 16.4729L122.213 16.2554L122.203 16.0444L122.174 15.8599L121.752 13.9482L118.074 13.9482L118.43 12.3794L121.383 12.3794L118.957 1.66113L119.287 0.369141M118.377 3.71777L119.049 6.44678L116.716 14.9634L116.637 15.3193L116.61 15.6489L116.805 16.3608L117.388 16.8354L117.85 17.0464L118.176 17.3101L118.285 17.7056L118.044 18.2L117.322 18.3647L113.974 18.3647L113.537 18.3137L113.202 18.1604L112.99 17.9182L112.919 17.6001L113.064 17.2507L113.499 16.9673L113.969 16.7415L114.297 16.5388L114.549 16.313L114.791 16.0181L115.127 15.3885L115.397 14.5811L118.377 3.71777M138.211 18.3647L131.989 18.3647L131.569 18.3203L131.257 18.1868L131.064 17.9709L131 17.6792L131.132 17.231L131.527 16.9673L131.872 16.8503L132.035 16.7893L132.109 16.7349L132.187 16.6377L132.305 16.3641L132.345 15.9653L132.345 2.76855L132.305 2.36975L132.187 2.09619L132.109 1.99896L132.035 1.94458L131.872 1.88361L131.527 1.7666L131.132 1.50293L131 1.05469L131.064 0.763L131.257 0.547119L131.569 0.413635L131.989 0.369141L138.554 0.369141L138.974 0.413635L139.286 0.547119L139.479 0.763L139.543 1.05469L139.411 1.50293L139.016 1.7666L138.671 1.88361L138.508 1.94458L138.434 1.99896L138.356 2.09619L138.238 2.36975L138.198 2.76855L138.198 15.9653L138.238 16.3641L138.356 16.6377L138.434 16.7349L138.508 16.7893L138.671 16.8503L139.016 16.9673L139.411 17.231L139.543 17.6792L139.479 17.9709L139.286 18.1868L138.974 18.3203L138.554 18.3647L138.211 18.3647M149.198 18.3647L142.989 18.3647L142.569 18.3203L142.257 18.1868L142.064 17.9709L142 17.6792L142.132 17.231L142.527 16.9673L142.872 16.8503L143.035 16.7893L143.109 16.7349L143.187 16.6377L143.305 16.3641L143.345 15.9653L143.345 2.76855L143.305 2.36975L143.187 2.09619L143.109 1.99896L143.035 1.94458L142.872 1.88361L142.527 1.7666L142.132 1.50293L142 1.05469L142.064 0.763L142.257 0.547119L142.569 0.413635L142.989 0.369141L149.66 0.369141L150.157 0.408691L150.49 0.527344L150.747 0.77124L150.833 1.08105L150.675 1.55237L150.2 1.80615L149.792 1.90503L149.594 1.96436L149.498 2.02368L149.396 2.12256L149.248 2.42578L149.198 2.86084L149.198 18.3647M150.266 18.3647L150.266 16.8882L150.845 16.7629L151.288 16.6245L151.655 16.4465L152.006 16.2026L152.537 15.6852L153.021 15.0029L153.44 14.1954L153.773 13.3022L153.976 12.7007L154.162 12.3464L154.381 12.1734L154.683 12.1157L155.002 12.1915L155.223 12.4189L155.282 12.6365L155.302 12.999L155.302 18.3647L150.266 18.3647M165.189 11.9839L163.594 18.3647L160.746 18.3647L156.501 2.87402L156.361 2.43237L156.231 2.16211L156.061 1.99402L155.802 1.85889L155.407 1.57874L155.275 1.16016L155.357 0.822327L155.604 0.573486L156 0.420227L156.527 0.369141L162.697 0.369141L163.185 0.408691L163.488 0.527344L163.696 0.761353L163.765 1.06787L163.65 1.4436L163.304 1.75342L162.989 1.95941L162.809 2.12915L162.725 2.31866L162.697 2.58398L162.707 2.729L162.737 2.87402L165.189 11.9839M166.441 0.369141L169.157 0.369141L172.321 12.3662L170.818 18.3647L167.944 18.3647L164.873 6.77637L166.441 0.369141M172.822 10.2568L172.137 7.58057L173.099 3.67822L173.188 3.26953L173.218 2.96631L173.163 2.59882L173 2.28735L172.712 2.01215L172.282 1.75342L172.003 1.58533L171.827 1.42383L171.733 1.24255L171.702 1.01514L171.756 0.720154L171.919 0.520752L172.201 0.407043L172.611 0.369141L175.749 0.369141L176.209 0.407043L176.507 0.520752L176.67 0.72345L176.725 1.02832L176.697 1.22113L176.613 1.37769L176.463 1.51117L176.237 1.63477L175.723 1.90503L175.367 2.18848L174.836 2.93005L174.457 3.94189L172.822 10.2568M181.683 0.472082L186.996 0.472082L190.661 15.9628C190.731 16.2352 190.81 16.4769 190.898 16.6879C190.977 16.8549 191.153 16.9911 191.425 17.0966C191.654 17.1932 191.812 17.2899 191.9 17.3866C191.988 17.4833 192.032 17.6151 192.032 17.7821C192.032 18.2391 191.689 18.4676 191.003 18.4676L184.425 18.4676C184.161 18.4676 183.95 18.4039 183.792 18.2765C183.634 18.149 183.555 17.9799 183.555 17.7689C183.555 17.5931 183.59 17.4613 183.66 17.3734C183.73 17.2855 183.889 17.1757 184.135 17.0438C184.311 16.9559 184.434 16.8592 184.504 16.7538C184.574 16.6483 184.609 16.5165 184.609 16.3583C184.609 16.2089 184.596 16.077 184.57 15.9628L184.148 14.0511L180.47 14.0511L180.826 12.4823L183.779 12.4823L181.353 1.76407L181.683 0.472082M180.773 3.82071L181.445 6.54972L179.112 15.0663C179.042 15.3124 179.006 15.5409 179.006 15.7518C179.006 16.3055 179.266 16.701 179.784 16.9383L180.246 17.1493C180.536 17.2811 180.681 17.5008 180.681 17.8085C180.681 18.2479 180.36 18.4676 179.718 18.4676L176.37 18.4676C176.044 18.4676 175.787 18.3995 175.598 18.2633C175.409 18.1271 175.315 17.9403 175.315 17.703C175.315 17.4481 175.508 17.2372 175.895 17.0702C176.255 16.912 176.521 16.7692 176.693 16.6417C176.864 16.5143 177.029 16.3407 177.187 16.121C177.433 15.7606 177.635 15.2816 177.793 14.684L180.773 3.82071M202.91 10.1102L202.91 15.8583C202.91 16.201 202.976 16.4471 203.107 16.5965C203.178 16.6844 203.244 16.7394 203.305 16.7613C203.367 16.7833 203.569 16.8382 203.912 16.9261C204.334 17.0228 204.544 17.2645 204.544 17.6512C204.544 17.9061 204.426 18.0995 204.188 18.2313C204.048 18.3192 203.775 18.3631 203.371 18.3631L202.923 18.3631L197.043 18.3631L196.608 18.3631C196.212 18.3631 195.936 18.3104 195.777 18.2049C195.549 18.0643 195.435 17.8797 195.435 17.6512C195.435 17.2645 195.646 17.0228 196.067 16.9261C196.41 16.8382 196.612 16.7833 196.674 16.7613C196.735 16.7394 196.797 16.6844 196.858 16.5965C196.99 16.4471 197.056 16.201 197.056 15.8583L197.056 11.4022L193.325 2.50332C193.185 2.16934 192.987 1.92764 192.732 1.77823C192.495 1.62881 192.343 1.51016 192.277 1.42227C192.211 1.33438 192.178 1.21133 192.178 1.05313C192.178 0.596095 192.512 0.36758 193.18 0.36758L199.64 0.36758C199.983 0.36758 200.22 0.40713 200.352 0.486232C200.572 0.626857 200.682 0.811427 200.682 1.03994C200.682 1.32119 200.554 1.54092 200.299 1.69912L199.917 1.93643C199.768 2.03311 199.693 2.17813 199.693 2.37149C199.693 2.59121 199.741 2.80655 199.838 3.01748L202.91 10.1102M203.424 8.85782L202.686 7.13076L204.07 4.03262C204.184 3.76895 204.241 3.4086 204.241 2.95157C204.241 2.4418 203.96 2.07705 203.397 1.85733C203.09 1.73428 202.89 1.62661 202.798 1.53433C202.705 1.44204 202.659 1.29922 202.659 1.10586C202.659 0.868556 202.738 0.68838 202.896 0.565334C203.002 0.486232 203.121 0.433498 203.252 0.40713C203.384 0.380763 203.613 0.36758 203.938 0.36758L207.194 0.36758C207.81 0.36758 208.117 0.613673 208.117 1.10586C208.117 1.28164 208.075 1.41787 207.992 1.51455C207.908 1.61123 207.748 1.71231 207.511 1.81778C207.08 2.01114 206.772 2.20449 206.588 2.39785C206.324 2.6791 206.105 2.9999 205.929 3.36026L205.625 4.03262L203.424 8.85782"/>
</svg>
