<?xml version="1.0" standalone="no"?>
<!DOCTYPE svg PUBLIC "-//W3C//DTD SVG 20010904//EN" "http://www.w3.org/TR/2001/REC-SVG-20010904/DTD/svg10.dtd">
<!-- Created using Krita: http://krita.org -->
<svg xmlns="http://www.w3.org/2000/svg" 
    xmlns:xlink="http://www.w3.org/1999/xlink"
    xmlns:krita="http://krita.org/namespaces/svg/krita"
    xmlns:sodipodi="http://sodipodi.sourceforge.net/DTD/sodipodi-0.dtd"
    width="288pt"
    height="360pt"
    viewBox="0 0 288 360">
<defs/>
<path id="shape011" transform="matrix(0.9999999235 0 0 0.99999999264 148.17537874 157.79599912)" fill="#000000" fill-rule="evenodd" d="M0 0L0.777096 9.63192C3.36912 14.2028 4.3107 13.0744 5.96835 14.4187C8.97455 15.5404 12.3641 15.2681 15.389 15.2805C17.6379 15.4255 19.9186 13.4203 21.2491 12.2276C22.1149 11.552 23.0417 11.1102 23.5995 9.25375L24.4212 1.06003C23.6144 2.95885 23.1194 5.035 21.2236 6.31432C19.3884 7.98371 17.4275 9.29914 15.44 9.3397L9.25509 9.25375C7.37809 8.50969 5.63174 8.10436 3.49056 6.67531C2.46464 5.71783 1.45581 4.71982 0.796205 2.89359L0.133762 0.332333Z"/><path id="shape1" transform="matrix(0.9999999235 0 0 0.99999999264 130.35907913 133.17917086)" fill="#000000" fill-rule="evenodd" d="M33.4033 11.4641L33.1021 0L0.600765 12.4924L0 27.5665Z"/><path id="shape2" transform="matrix(0.9999999235 0 0 0.99999999264 105.45961232 130.06341486)" fill="#000000" fill-rule="evenodd" d="M24.0737 32.5174L24.5006 14.9518L0.663978 0L0 13.0361L4.2144 16.8612L4.10101 5.33491L18.7427 14.691L17.8343 27.1038Z"/><path id="shape3" transform="matrix(0.9999999235 0 0 0.99999999264 134.23529985 160.83170657)" fill="#000000" fill-rule="evenodd" d="M0 0L3.36101 1.64914Z"/><path id="shape4" transform="matrix(0.9999999235 0 0 0.99999999264 130.83903957 162.42799219)" fill="#000000" fill-rule="evenodd" d="M0 0L4.50093 1.75486Z"/><path id="shape5" transform="matrix(0.9999999235 0 0 0.99999999264 130.12218188 145.61942177)" fill="#000000" fill-rule="evenodd" d="M0 16.2906L18.4855 7.71714C17.7878 8.86488 17.2288 9.98633 17.1576 11.0154C17.346 14.5355 17.4408 17.6765 17.5689 20.9526C17.9955 22.674 18.9667 24.0391 19.9926 25.3685C21.3323 26.5225 22.8113 27.5605 25.0378 27.9759C27.1869 28.5617 29.4015 28.6268 31.731 28.5847C33.6588 28.5698 35.5851 28.1031 37.3156 27.58C39.1285 26.2949 40.8126 25.0573 41.8414 23.449C42.8719 20.1191 43.2884 17.1404 42.9293 13.622C42.3339 11.4377 42.7177 9.76342 41.4055 7.6498C40.4883 5.85208 38.8843 4.85019 37.3354 3.78457C35.2555 3.19698 33.6406 2.19686 30.8249 2.26229L34.9498 0L65.1165 18.5529L27.3229 38.7126L0.0940141 16.8086Z"/><path id="shape6" transform="matrix(0.9999999235 0 0 0.99999999264 106.1758524 116.83833345)" fill="#000000" fill-rule="evenodd" d="M1.03069 12.9892L25.0802 27.9652L57.2083 15.2497L30.9895 0L0 12.4506Z"/><path id="shape7" transform="matrix(0.99766030086 0.06836498915 -0.068364984419 0.99766036988 101.14208081 117.518155)" fill="#000000" fill-rule="evenodd" d="M0.550567 8.34738L0 6.7716L14.7867 0L18.735 4.06012L1.7963 12.8792Z"/><path id="shape8" transform="matrix(0.9964587092 0.084082631003 -0.084082625185 0.99645877815 84.953322903 114.86694459)" fill="#000000" fill-rule="evenodd" d="M2.6359 0L0 2.99848L17.3763 14.0014L15.3883 7.53433Z"/><path id="shape9" transform="matrix(0.99855564403 0.053725907431 -0.053725903715 0.99855571315 88.858279259 108.76461758)" fill="#000000" fill-rule="evenodd" d="M0 6.03614L11.9569 13.5335L27.0972 7.19693L12.9197 0Z"/><path id="shape10" transform="matrix(0.9999999235 0 0 0.99999999264 69.084552353 102.97220598)" fill="#000000" fill-rule="evenodd" d="M36.1703 26.8361L32.6715 28.8695L14.116 14.9831L18.4394 11.1066L32.8699 5.53417L47.3429 14.116L51.1135 19.5991L60.2566 16.0797L32.1895 0L0 9.59215L35.5395 39.664"/><path id="shape11" transform="matrix(0.9999999235 0 0 0.99999999264 68.214562742 114.59568162)" fill="#000000" fill-rule="evenodd" d="M5.48088 4.11954C33.837 27.2166 59.6974 48.6191 86.343 70.0375L86.8387 95.3244L80.3453 89.7064L81.7435 75.2866L71.3261 67.1658L70.499 81.1147L67.7814 79.0952C63.8568 69.4914 66.3314 62.9987 47.5374 45.5715C38.7482 40.2672 28.783 38.6365 21.2577 42.4422L0 27.0182L0.17496 0"/><path id="shape12" transform="matrix(0.9999999235 0 0 0.99999999264 118.58580209 195.59352001)" fill="#000000" fill-rule="evenodd" d="M1.92739 47.2019L36.5742 77.1719L36.5742 15.7458L17.1105 0C18.1025 10.1061 19.0855 16.6025 16.6842 26.8071C13.0662 34.3921 16.0962 35.7161 0 45.3443Z"/><path id="shape13" transform="matrix(0.9999999235 0 0 0.99999999264 155.15998812 260.99193176)" fill="#000000" fill-rule="evenodd" d="M0 10.9476L9.16332 0Z"/><path id="shape14" transform="matrix(0.9999999235 0 0 0.99999999264 155.15998812 186.636163)" fill="#000000" fill-rule="evenodd" d="M2.3975 0L0 87.0451Z"/><path id="shape15" transform="matrix(0.9999999235 0 0 0.99999999264 157.91918153 165.8127199)" fill="#000000" fill-rule="evenodd" d="M0 21.0914L0.0851046 107.046L11.3402 99.5238C13.641 82.038 5.97322 65.3831 20.4327 56.054C15.9786 67.6946 17.0023 73.7252 22.4659 78.928C26.0929 75.1031 30.5307 69.0759 33.6488 70.2867C27.3427 78.2465 30.5798 82.433 31.2767 86.7221C36.6488 83.1664 40.5838 80.734 43.0817 79.4249C35.8199 71.1823 31.8631 61.2156 29.0638 54.4053C28.5226 53.505 26.0927 55.8986 25.6172 55.287C24.0277 53.242 22.6408 49.0558 21.4493 47.0739C13.0153 45.1476 6.10516 31.4941 21.3613 24.613C34.493 25.4228 34.863 32.8747 32.2547 41.8766L36.1269 48.5561L33.7493 50.4677C37.5162 57.6018 40.7363 65.2345 42.1087 64.6475L38.0205 0Z"/><path id="shape16" transform="matrix(0.9999999235 0 0 0.99999999264 66.947027165 143.88381878)" fill="#000000" fill-rule="evenodd" d="M1.06151 0L21.1649 14.3087L18.9112 15.9394C10.7504 15.086 4.72514 16.4697 0 19.2154Z"/><path id="shape17" transform="matrix(0.9999999235 0 0 0.99999999264 56.220146539 175.20862071)" fill="#000000" fill-rule="evenodd" d="M31.9242 38.8492C31.7159 31.4227 23.4655 15.1634 18.1869 10.9193C24.9264 10.7768 27.5331 12.7193 32.1044 15.6121C29.6401 11.56 23.7832 5.36255 21.5695 3.41616C16.7643 -0.0353918 7.04784 -4.00549 1.05865 8.80019C-1.80872 20.1184 1.86859 30.5754 3.60651 38.5158C8.40535 58.3885 25.4883 69.9844 30.2758 69.2403C50.3113 64.8294 40.7724 31.1488 37.9717 26.7271C36.6931 23.4886 34.3085 18.1584 32.8994 17.0842C33.8109 20.3315 42.1577 38.9127 38.4433 38.142"/><path id="shape18" transform="matrix(0.9999999235 0 0 0.99999999264 67.295811411 160.38301154)" fill="#000000" fill-rule="evenodd" d="M20.0394 0C58.9768 18.1487 60.3529 85.0204 44.0246 86.9288L28.964 95.2158C64.0096 71.269 25.6603 -3.07213 0 3.97883C1.78901 2.04109 4.87497 0.265495 20.0394 0Z"/><path id="shape19" transform="matrix(0.9999999235 0 0 0.99999999264 87.570284296 156.90917503)" fill="#000000" fill-rule="evenodd" d="M32.8133 81.8746C62.357 68.2815 44.0064 -15.7751 0 2.61874C10.8599 3.3416 20.6489 13.5647 29.367 33.288C36.1457 51.1183 37.2945 67.3139 32.8133 81.8746Z"/><ellipse id="shape20" transform="matrix(0.9999999235 0 0 0.99999999264 173.99998668 194.39999859)" rx="7.2" ry="7.32" cx="7.2" cy="7.32" fill="#000000" fill-rule="evenodd"/><rect id="shape21" transform="matrix(0.84348454655 -0.55040562168 0.44276165229 0.8966393241 181.3110402 212.51222004)" fill="#000000" fill-rule="evenodd" width="8.7526145086" height="7.8288513668"/><path id="shape22" transform="matrix(0.9999999235 0 0 0.99999999264 187.66041174 216.65306069)" fill="#000000" fill-rule="evenodd" d="M3.08239 0C8.81343 11.5448 13.4666 20.8961 20.3388 21.6483L20.8441 30.3985C11.6324 29.2146 6.12288 14.5398 0 2.55689Z"/><path id="shape23" transform="matrix(0.9999999235 0 0 0.99999999264 209.50245949 173.10241132)" fill="#000000" fill-rule="evenodd" d="M0 62.733L0.252655 74.9833L9.08296 78.7613C30.9179 67.3812 37.6548 62.5346 39.1552 59.954C49.6071 27.6991 48.3425 21.0368 43.8175 8.01283C32.6361 -5.68721 24.6672 1.37338 16.3025 5.87641L17.3763 31.9226C18.3977 30.2692 20.1245 28.9966 21.7978 27.6952C29.0397 26.6857 29.8082 29.2445 33.1041 30.2713C34.6793 31.9015 35.8876 33.6543 36.2876 35.6772C43.1385 28.8128 41.3959 19.6508 37.993 10.5891C41.5407 15.1177 47.1777 33.2515 32.8641 38.6353L8.12914 49.3969Z"/><path id="shape24" transform="matrix(0.9999999235 0 0 0.99999999264 204.79252922 177.96563017)" fill="#000000" fill-rule="evenodd" d="M19.7838 1.85074L21.0111 29.0402C20.4114 38.001 10.6585 37.0497 2.80271 38.1528L0 7.2392C5.60598 -0.734178 12.3739 -1.44723 19.7838 1.85074Z"/><path id="shape25" transform="matrix(0.9999999235 0 0 0.99999999264 198.06155354 184.95238486)" fill="#000000" fill-rule="evenodd" d="M6.10001 3.16386L8.26157 28.722C6.10956 29.8193 3.92768 30.451 1.63033 29.2822L0 0L6.02673 1.49954Z"/><path id="shape26" transform="matrix(0.9999999235 0 0 0.99999999264 180.64543124 126.98991048)" fill="#000000" fill-rule="evenodd" d="M0.76651 26.3043C-2.60979 12.347 6.28658 22.4191 5.86702 0C11.4127 7.45464 19.7653 7.22203 16.8356 36.483Z"/><path id="shape27" transform="matrix(0.9999999235 0 0 0.99999999264 170.24453046 225.14612967)" fill="#000000" fill-rule="evenodd" d="M0.0505908 40.0952C-0.275512 42.4318 1.0027 44.2484 3.08252 45.243C3.29653 44.7599 6.5364 45.646 8.47707 39.2132C10.1495 39.6128 11.6986 41.0817 15.565 37.5334C21.9622 26.4932 11.4554 26.3571 18.6973 12.3546C13.6349 15.6178 11.1576 22.0987 9.82236 21.3857C1.48105 13.509 3.67374 6.74703 6.00735 0C-2.49949 9.14795 1.66413 26.4709 0.0438926 40.0621Z"/><path id="shape28" transform="matrix(0.9999999235 0 0 0.99999999264 24.019828746 110.64009253)" fill="#000000" fill-rule="evenodd" d="M31.3342 57.6619C23.4913 62.1955 24.1453 72.6519 22.152 75.4235C4.31796 47.9878 14.266 24.2606 0 0C8.43617 12.5084 15.116 7.80285 28.4265 46.3761Z"/><path id="shape29" transform="matrix(0.9999999235 0 0 0.99999999264 26.257984606 113.10086259)" fill="#000000" fill-rule="evenodd" d="M0 0C23.7306 19.5901 26.1726 35.8009 29.7959 54.3434C31.5542 52.7786 33.202 51.0867 36.0018 50.7205C28.1002 16.7562 14.8667 3.52456 0 0Z"/><path id="shape30" transform="matrix(0.9999999235 0 0 0.99999999264 52.651018748 118.55141476)" fill="#000000" fill-rule="evenodd" d="M0 0C1.82475 7.49107 4.00338 15.1893 2.07863 20.4853C5.89574 24.9335 7.96941 35.9852 10.7396 44.3987L14.4811 44.1286C12.4669 5.83975 6.1439 3.67055 0 0Z"/><path id="shape31" transform="matrix(0.9999999235 0 0 0.99999999264 197.13986145 109.58073118)" fill="#000000" fill-rule="evenodd" d="M14.3974 67.9634C8.44984 67.4924 8.9386 79.379 0.19418 73.754C-2.3816 24.5327 21.1697 28.0282 41.0627 0C32.5227 25.1702 11.7922 45.4842 12.725 60.4593C11.8661 64.9504 14.7093 66.2699 14.3974 67.9634Z"/><path id="shape32" transform="matrix(0.9999999235 0 0 0.99999999264 211.17327106 111.8887651)" fill="#000000" fill-rule="evenodd" d="M26.2962 1.36009C16.4 29.7938 -7.89782 53.4846 2.56315 64.5219C8.12988 64.5494 10.0719 64.5741 14.8191 65.4905C40.4025 31.668 31.2564 10.6466 27.3042 0Z"/><path id="shape33" transform="matrix(0.9999999235 0 0 0.99999999264 237.05592842 150.18378103)" fill="#000000" fill-rule="evenodd" d="M8.43414 22.1046L0 22.073C2.76515 9.65811 17.864 -0.423952 22.9819 0.0137323C10.8664 7.15768 12.0479 22.8346 7.67421 22.1439Z"/><path id="shape34" transform="matrix(0.9999999235 0 0 0.99999999264 227.27162806 147.00072192)" fill="#000000" fill-rule="evenodd" d="M9.10045 25.3507C6.99782 25.2155 3.18758 28.6513 0 30.3509C3.25063 25.4545 1.07116 32.1285 12.5022 8.93059C19.1954 -1.07362 27.5922 -1.25927 31.7858 1.58C19.4589 7.32104 10.722 14.165 9.07855 25.5398Z"/><ellipse id="shape35" transform="matrix(0.98800604361 -0.18273263234 0.2766299373 0.9609765099 41.240646644 173.2408204)" rx="24.014257608" ry="43.274950012" cx="24.014257608" cy="43.274950012" fill="none" stroke="#000000" stroke-width="7.2" stroke-linecap="square" stroke-linejoin="bevel"/><ellipse id="shape36" transform="matrix(0.9999999235 0 0 0.99999999264 149.71031637 148.84391836)" rx="10.712835387" ry="8.2150165668" cx="10.712835387" cy="8.2150165668" fill="#000000" fill-rule="evenodd"/><path id="shape37" transform="matrix(0.57455643416 0.023052921808 -0.017150662255 0.5480517276 239.5694921 311.21796673)" fill="#000000" fill-rule="evenodd" d="M31.2181 0C37.5589 0.360608 39.3717 3.09437 45.3832 14.4251C58.7288 12.2169 59.2198 19.0441 60.1756 24.0018C60.0542 46.7563 53.4647 51.2107 34.1598 54.2043C18.7402 54.7721 3.16593 56.2741 0.185679 31.9616C0.504144 27.0303 -2.92551 20.8486 10.0414 17.9598C15.1386 10.7018 15.5131 2.07671 24.5351 0.409361Z"/><ellipse id="shape38" transform="matrix(0.57455643416 0.023052921808 -0.017150662255 0.5480517276 259.35470244 293.54826305)" rx="8.4" ry="13.2" cx="8.4" cy="13.2" fill="#000000" fill-rule="evenodd"/><ellipse id="shape39" transform="matrix(0.57455643416 0.023052921808 -0.017150662255 0.5480517276 269.56706144 302.51835528)" rx="7.8" ry="11.76" cx="7.8" cy="11.76" fill="#000000" fill-rule="evenodd"/><ellipse id="shape40" transform="matrix(0.57455643416 0.023052921808 -0.017150662255 0.5480517276 243.59367681 294.23285924)" rx="8.88" ry="12.36" cx="8.88" cy="12.36" fill="#000000" fill-rule="evenodd"/><ellipse id="shape41" transform="matrix(0.57455643416 0.023052921808 -0.017150662255 0.5480517276 232.65481351 304.06636959)" rx="7.92" ry="11.52" cx="7.92" cy="11.52" fill="#000000" fill-rule="evenodd"/><path id="shape42" transform="matrix(0.98437493011 0.17608477562 -0.17608476344 0.98437499824 16.334504828 289.70827152)" fill="#000000" fill-rule="evenodd" d="M22.853 33.5588C22.6887 19.3964 22.5146 14.5155 21.9138 0C33.8382 2.56432 52.7536 31.4534 33.5882 47.271C29.4995 49.055 25.6394 46.2635 24.5612 43.5719C24.3154 45.6864 23.8221 48.9297 19.2054 49.197C-4.73635 47.9084 -5.28437 11.5393 11.9658 1.73792C15.3484 9.16509 18.7471 23.0486 22.853 33.5588Z"/><path id="shape43" transform="matrix(0.9999999235 0 0 0.99999999264 2.822660657 81.730899606)" fill="#000000" fill-rule="evenodd" d="M0 6.6552L281.374 6.80925L275.106 0.0616222L6.50774 0Z"/><path id="shape02" transform="matrix(-0.99999952512 -0.00089598130962 0.00089598127621 -0.99999962622 284.21121642 96.344633721)" fill="#000000" fill-rule="evenodd" d="M0 6.6552L281.374 6.80925L275.106 0.0616222L6.50774 0Z"/><path id="shape03" transform="matrix(0.9999999288 0 0 1.0000000042 2.8226599025 276.04118574)" fill="#000000" fill-rule="evenodd" d="M0 6.6552L281.374 6.80925L275.106 0.0616222L6.50774 0Z"/><path id="shape04" transform="matrix(-0.99999953047 -0.00089598131999 0.000895981281 -0.99999963779 284.21121717 290.65492001)" fill="#000000" fill-rule="evenodd" d="M0 6.6552L281.374 6.80925L275.106 0.0616222L6.50774 0Z"/><path id="shape0" transform="matrix(0.99999995044 0 0 0.99999997395 19.079999054 48.959999115)" fill="none" stroke="#000000" stroke-width="1" stroke-linecap="square" stroke-linejoin="miter" stroke-miterlimit="2" d="M226.32 0L226.32 0L226.32 0.24L223.92 0.24L223.92 0.48L223.68 0.48L223.68 0.72L223.44 0.72L223.44 1.2L223.2 1.2L223.2 1.92L223.44 1.92L223.44 2.4L223.68 2.4L223.68 2.64L224.16 2.64L224.16 2.88L224.4 2.88L224.4 3.12L224.88 3.12L224.88 3.36L225.12 3.36L225.12 3.6L225.36 3.6L225.36 3.84L225.6 3.84L225.6 4.32L225.84 4.32L225.84 5.04L226.08 5.04L226.08 5.76L226.32 5.76L226.32 13.92L226.08 13.92L226.08 17.76L226.32 17.76L226.32 20.64L226.08 20.64L226.08 22.56L225.84 22.56L225.84 23.28L225.36 23.28L225.36 23.52L225.12 23.52L225.12 23.76L224.88 23.76L224.88 24L223.44 24L223.44 24.24L223.2 24.24L223.2 24.48L222.96 24.48L222.96 25.92L223.2 25.92L223.2 26.16L223.44 26.16L223.44 26.4L223.92 26.4L223.92 26.64L226.08 26.64L226.08 26.4L230.16 26.4L230.16 26.16L230.88 26.16L230.88 26.4L232.08 26.4L232.08 26.16L233.52 26.16L233.52 26.4L234.48 26.4L234.48 26.64L234.96 26.64L234.96 26.4L236.4 26.4L236.4 26.16L238.08 26.16L238.08 25.92L239.28 25.92L239.28 25.68L240 25.68L240 25.44L240.48 25.44L240.48 25.2L241.2 25.2L241.2 24.96L242.16 24.96L242.16 24.72L242.4 24.72L242.4 24.48L242.88 24.48L242.88 24.24L243.36 24.24L243.36 24L243.6 24L243.6 23.76L244.08 23.76L244.08 23.52L244.56 23.52L244.56 23.28L244.8 23.28L244.8 23.04L245.04 23.04L245.04 22.56L245.52 22.56L245.52 22.32L245.76 22.32L245.76 22.08L246 22.08L246 21.84L246.24 21.84L246.24 21.6L246.48 21.6L246.48 21.36L246.72 21.36L246.72 21.12L246.96 21.12L246.96 20.88L247.2 20.88L247.2 20.64L247.44 20.64L247.44 20.4L247.68 20.4L247.68 20.16L247.92 20.16L247.92 19.68L248.16 19.68L248.16 18.72L248.4 18.72L248.4 18.24L248.64 18.24L248.64 17.76L248.88 17.76L248.88 17.28L249.12 17.28L249.12 16.56L249.36 16.56L249.36 16.08L249.6 16.08L249.6 11.52L249.84 11.52L249.84 10.56L249.6 10.56L249.6 8.64L249.36 8.64L249.36 7.92L249.12 7.92L249.12 7.68L248.88 7.68L248.88 7.44L248.64 7.44L248.64 6.96L248.4 6.96L248.4 6.72L248.16 6.72L248.16 6L247.92 6L247.92 5.52L247.68 5.52L247.68 5.28L247.44 5.28L247.44 4.8L247.2 4.8L247.2 4.56L246.96 4.56L246.96 4.32L246.72 4.32L246.72 3.84L246.48 3.84L246.48 3.6L246.24 3.6L246.24 3.36L246 3.36L246 3.12L245.76 3.12L245.76 2.88L245.04 2.88L245.04 2.64L244.08 2.64L244.08 2.4L243.84 2.4L243.84 2.16L243.36 2.16L243.36 1.92L242.88 1.92L242.88 1.68L242.4 1.68L242.4 1.44L240.96 1.44L240.96 1.2L240.72 1.2L240.72 0.96L240.24 0.96L240.24 0.72L239.28 0.72L239.28 0.48L239.04 0.48L239.04 0.24L238.8 0.24L238.8 0L238.32 0L238.32 0.24L236.88 0.24L236.88 0.48L236.16 0.48L236.16 0.24L235.2 0.24L235.2 0L234.24 0L234.24 0.24L229.2 0.24L229.2 0L226.56 0L226.32 0M2.88 0.24L2.88 0.24L2.88 0.48L0.72 0.48L0.72 0.72L0.48 0.72L0.48 1.2L0.24 1.2L0.24 1.68L0.48 1.68L0.48 2.4L0.72 2.4L0.72 2.64L1.44 2.64L1.44 2.88L2.4 2.88L2.4 3.12L2.64 3.12L2.64 3.36L2.88 3.36L2.88 3.6L3.12 3.6L3.12 4.08L3.36 4.08L3.36 4.8L3.6 4.8L3.6 5.04L3.84 5.04L3.84 5.28L3.6 5.28L3.6 5.76L3.84 5.76L3.84 10.56L3.6 10.56L3.6 11.52L3.84 11.52L3.84 12.48L3.6 12.48L3.6 13.44L3.84 13.44L3.84 14.16L3.6 14.16L3.6 18.72L3.84 18.72L3.84 21.36L3.6 21.36L3.6 22.56L3.36 22.56L3.36 22.8L2.64 22.8L2.64 23.04L2.16 23.04L2.16 23.28L1.68 23.28L1.68 23.52L0.48 23.52L0.48 23.76L0.24 23.76L0.24 24.24L0 24.24L0 25.92L0.24 25.92L0.24 26.16L4.56 26.16L4.56 26.4L5.52 26.4L5.52 26.16L7.44 26.16L7.44 25.92L8.16 25.92L8.16 26.16L9.12 26.16L9.12 26.4L11.04 26.4L11.04 26.16L11.52 26.16L11.52 25.92L11.76 25.92L11.76 25.44L12 25.44L12 24.24L11.76 24.24L11.76 24L11.28 24L11.28 23.76L10.8 23.76L10.8 23.52L10.32 23.52L10.32 23.28L9.84 23.28L9.84 23.04L9.36 23.04L9.36 22.8L9.12 22.8L9.12 22.56L8.88 22.56L8.88 22.32L8.64 22.32L8.64 21.6L8.4 21.6L8.4 20.64L8.16 20.64L8.16 19.68L7.92 19.68L7.92 19.44L8.16 19.44L8.16 17.52L8.4 17.52L8.4 16.56L8.16 16.56L8.16 16.08L8.4 16.08L8.4 14.4L8.16 14.4L8.16 6.96L7.92 6.96L7.92 4.8L8.16 4.8L8.16 3.84L8.4 3.84L8.4 3.6L8.64 3.6L8.64 3.36L8.88 3.36L8.88 3.12L9.12 3.12L9.12 2.88L9.36 2.88L9.36 2.64L9.84 2.64L9.84 2.4L10.08 2.4L10.08 2.16L10.56 2.16L10.56 1.92L10.8 1.92L10.8 0.48L7.2 0.48L7.2 0.72L6.72 0.72L6.72 0.48L4.56 0.48L4.56 0.24L3.12 0.24L2.88 0.24M73.68 0.48L73.68 0.48L73.68 0.72L72.96 0.72L72.96 0.96L71.52 0.96L71.52 1.2L71.28 1.2L71.28 0.96L69.6 0.96L69.6 0.72L68.4 0.72L68.4 0.96L64.8 0.96L64.8 1.2L64.32 1.2L64.32 0.96L61.92 0.96L61.92 1.2L61.44 1.2L61.44 0.96L58.8 0.96L58.8 1.2L58.56 1.2L58.56 0.96L56.16 0.96L56.16 1.2L54.72 1.2L54.72 1.44L54.24 1.44L54.24 1.68L54 1.68L54 5.04L54.24 5.04L54.24 5.28L54 5.28L54 9.84L54.24 9.84L54.24 10.56L55.44 10.56L55.44 10.32L55.68 10.32L55.68 9.84L55.92 9.84L55.92 9.36L56.16 9.36L56.16 8.64L56.4 8.64L56.4 7.92L56.64 7.92L56.64 7.2L56.88 7.2L56.88 6.48L57.12 6.48L57.12 5.76L57.36 5.76L57.36 5.28L57.6 5.28L57.6 4.56L58.32 4.56L58.32 4.32L58.56 4.32L58.56 4.08L58.8 4.08L58.8 3.84L59.04 3.84L59.04 3.6L59.28 3.6L59.28 3.36L59.76 3.36L59.76 3.12L60.72 3.12L60.72 2.88L61.68 2.88L61.68 3.12L62.16 3.12L62.16 3.36L62.4 3.36L62.4 3.6L62.64 3.6L62.64 3.84L62.88 3.84L62.88 4.56L63.12 4.56L63.12 6.72L63.36 6.72L63.36 8.4L63.12 8.4L63.12 10.08L63.36 10.08L63.36 11.04L63.12 11.04L63.12 19.2L63.36 19.2L63.36 19.68L63.12 19.68L63.12 19.92L63.36 19.92L63.36 22.56L63.12 22.56L63.12 23.28L62.88 23.28L62.88 23.76L62.64 23.76L62.64 24L62.4 24L62.4 24.24L62.16 24.24L62.16 24.48L61.68 24.48L61.68 24.72L60.72 24.72L60.72 24.96L60.48 24.96L60.48 25.2L60 25.2L60 24.96L59.28 24.96L59.28 25.2L59.04 25.2L59.04 26.16L59.28 26.16L59.28 26.4L59.52 26.4L59.52 26.64L60.24 26.64L60.24 26.4L61.2 26.4L61.2 26.64L62.16 26.64L62.16 26.4L62.88 26.4L62.88 26.16L65.28 26.16L65.28 26.4L66.24 26.4L66.24 26.16L66.72 26.16L66.72 25.92L67.92 25.92L67.92 26.16L68.64 26.16L68.64 26.4L70.8 26.4L70.8 26.16L71.28 26.16L71.28 25.92L71.52 25.92L71.52 25.2L71.28 25.2L71.28 24.96L71.04 24.96L71.04 24.72L70.56 24.72L70.56 24.48L68.88 24.48L68.88 24.24L68.4 24.24L68.4 24L68.16 24L68.16 23.76L67.92 23.76L67.92 23.52L67.68 23.52L67.68 23.04L67.44 23.04L67.44 22.56L67.2 22.56L67.2 20.64L66.96 20.64L66.96 17.76L67.2 17.76L67.2 17.04L66.96 17.04L66.96 16.8L67.2 16.8L67.2 16.32L66.96 16.32L66.96 14.88L67.2 14.88L67.2 9.36L66.96 9.36L66.96 4.56L67.2 4.56L67.2 3.84L67.44 3.84L67.44 3.6L67.68 3.6L67.68 3.36L67.92 3.36L67.92 3.12L68.4 3.12L68.4 2.88L70.08 2.88L70.08 3.12L70.8 3.12L70.8 3.36L71.04 3.36L71.04 3.6L71.52 3.6L71.52 3.84L72 3.84L72 4.08L72.48 4.08L72.48 4.32L72.96 4.32L72.96 4.56L73.2 4.56L73.2 5.04L73.44 5.04L73.44 5.52L73.68 5.52L73.68 6L73.92 6L73.92 6.72L74.16 6.72L74.16 7.44L74.4 7.44L74.4 7.92L74.64 7.92L74.64 8.64L74.88 8.64L74.88 9.12L75.12 9.12L75.12 9.6L75.36 9.6L75.36 9.84L76.08 9.84L76.08 9.36L76.32 9.36L76.32 8.64L76.56 8.64L76.56 7.68L76.8 7.68L76.8 6.48L76.56 6.48L76.56 5.52L76.32 5.52L76.32 1.2L76.08 1.2L76.08 0.72L75.6 0.72L75.6 0.48L73.92 0.48L73.68 0.48M80.88 0.48L80.88 0.48L80.88 0.72L80.4 0.72L80.4 0.96L80.16 0.96L80.16 1.44L79.92 1.44L79.92 2.88L80.16 2.88L80.16 3.12L81.36 3.12L81.36 3.36L82.8 3.36L82.8 3.6L83.28 3.6L83.28 3.84L83.52 3.84L83.52 4.32L83.76 4.32L83.76 4.8L84 4.8L84 5.76L84.24 5.76L84.24 12L84 12L84 14.16L84.24 14.16L84.24 17.04L84.48 17.04L84.48 17.76L84.24 17.76L84.24 22.32L84 22.32L84 23.04L83.76 23.04L83.76 23.52L83.52 23.52L83.52 23.76L83.28 23.76L83.28 24L82.8 24L82.8 24.24L82.32 24.24L82.32 24L81.6 24L81.6 24.24L81.12 24.24L81.12 24.48L80.88 24.48L80.88 24.72L80.64 24.72L80.64 26.16L80.88 26.16L80.88 26.4L86.16 26.4L86.16 26.16L88.8 26.16L88.8 26.4L91.44 26.4L91.44 26.16L91.92 26.16L91.92 25.68L91.68 25.68L91.68 25.2L91.44 25.2L91.44 24.96L90.96 24.96L90.96 24.72L90.48 24.72L90.48 24.48L90 24.48L90 24.24L89.52 24.24L89.52 24L89.28 24L89.28 23.76L88.8 23.76L88.8 23.28L88.56 23.28L88.56 20.4L88.32 20.4L88.32 19.2L88.56 19.2L88.56 18.24L88.32 18.24L88.32 15.84L88.56 15.84L88.56 15.12L88.8 15.12L88.8 14.88L89.04 14.88L89.04 14.64L89.28 14.64L89.28 14.4L89.52 14.4L89.52 14.16L90.48 14.16L90.48 14.4L92.16 14.4L92.16 14.16L94.08 14.16L94.08 14.4L97.68 14.4L97.68 14.64L98.16 14.64L98.16 14.88L98.4 14.88L98.4 15.36L98.64 15.36L98.64 22.8L98.4 22.8L98.4 23.28L98.16 23.28L98.16 23.52L97.68 23.52L97.68 23.76L97.2 23.76L97.2 24L96.96 24L96.96 24.24L96.48 24.24L96.48 24.48L96.24 24.48L96.24 24.72L95.76 24.72L95.76 24.96L95.52 24.96L95.52 25.44L95.28 25.44L95.28 25.68L95.52 25.68L95.52 26.16L95.76 26.16L95.76 26.4L96 26.4L96 26.64L97.44 26.64L97.44 26.4L97.68 26.4L97.68 26.16L98.16 26.16L98.16 26.4L100.8 26.4L100.8 26.16L101.28 26.16L101.28 26.4L102.24 26.4L102.24 26.16L103.2 26.16L103.2 26.4L106.32 26.4L106.32 26.16L106.56 26.16L106.56 25.92L106.8 25.92L106.8 25.68L107.04 25.68L107.04 25.2L106.8 25.2L106.8 24.72L105.6 24.72L105.6 24.48L104.4 24.48L104.4 24.24L103.92 24.24L103.92 24L103.68 24L103.68 23.76L103.44 23.76L103.44 23.52L103.2 23.52L103.2 23.04L102.96 23.04L102.96 22.56L102.72 22.56L102.72 18.72L102.48 18.72L102.48 18.24L102.24 18.24L102.24 18L102.48 18L102.48 17.52L102.72 17.52L102.72 15.36L102.48 15.36L102.48 13.92L102.24 13.92L102.24 12.96L102.48 12.96L102.48 12.48L102.72 12.48L102.72 11.52L102.48 11.52L102.48 10.08L102.72 10.08L102.72 8.64L102.48 8.64L102.48 4.8L102.72 4.8L102.72 4.08L102.96 4.08L102.96 3.84L103.2 3.84L103.2 3.6L103.44 3.6L103.44 3.36L103.68 3.36L103.68 3.12L103.92 3.12L103.92 2.88L105.36 2.88L105.36 2.64L105.6 2.64L105.6 2.88L106.08 2.88L106.08 2.64L106.56 2.64L106.56 2.16L106.8 2.16L106.8 1.68L106.56 1.68L106.56 1.2L106.32 1.2L106.32 0.96L106.08 0.96L106.08 0.72L101.76 0.72L101.76 0.96L97.68 0.96L97.68 0.72L95.28 0.72L95.28 1.2L95.04 1.2L95.04 2.16L95.28 2.16L95.28 2.64L95.52 2.64L95.52 2.88L96.24 2.88L96.24 3.12L96.72 3.12L96.72 3.36L97.44 3.36L97.44 3.6L97.92 3.6L97.92 3.84L98.16 3.84L98.16 4.08L98.4 4.08L98.4 4.8L98.64 4.8L98.64 10.8L98.4 10.8L98.4 11.76L97.92 11.76L97.92 12L97.2 12L97.2 12.24L95.76 12.24L95.76 12.48L95.52 12.48L95.52 12.72L95.28 12.72L95.28 12.48L94.08 12.48L94.08 12.24L91.2 12.24L91.2 12.48L89.76 12.48L89.76 12.24L89.52 12.24L89.52 12L89.28 12L89.28 11.76L89.04 11.76L89.04 11.28L88.8 11.28L88.8 10.8L88.56 10.8L88.56 9.84L88.32 9.84L88.32 6.96L88.56 6.96L88.56 4.56L88.8 4.56L88.8 4.08L89.04 4.08L89.04 3.84L89.28 3.84L89.28 3.36L90.24 3.36L90.24 3.12L91.2 3.12L91.2 2.88L91.68 2.88L91.68 2.64L92.16 2.64L92.16 0.96L91.68 0.96L91.68 0.72L86.88 0.72L86.88 0.96L86.16 0.96L86.16 0.72L84.48 0.72L84.48 0.48L83.52 0.48L83.52 0.72L82.8 0.72L82.8 0.48L81.84 0.48L81.84 0.72L81.6 0.72L81.6 0.48L81.12 0.48L80.88 0.48M114 0.48L114 0.48L114 0.72L111.84 0.72L111.84 0.96L110.16 0.96L110.16 1.2L109.92 1.2L109.92 1.44L109.68 1.44L109.68 2.4L109.92 2.4L109.92 2.88L110.16 2.88L110.16 3.36L110.4 3.36L110.4 3.6L110.64 3.6L110.64 3.84L110.88 3.84L110.88 4.32L111.12 4.32L111.12 4.56L111.36 4.56L111.36 5.04L111.6 5.04L111.6 7.2L111.84 7.2L111.84 11.52L111.6 11.52L111.6 13.68L111.84 13.68L111.84 16.08L111.6 16.08L111.6 16.56L111.84 16.56L111.84 17.04L111.6 17.04L111.6 19.44L111.36 19.44L111.36 21.12L111.6 21.12L111.6 22.56L111.12 22.56L111.12 23.52L110.88 23.52L110.88 23.76L110.64 23.76L110.64 24.24L110.16 24.24L110.16 24.48L109.68 24.48L109.68 24.72L109.2 24.72L109.2 24.96L108.96 24.96L108.96 25.68L109.2 25.68L109.2 25.92L109.92 25.92L109.92 25.68L111.12 25.68L111.12 25.92L111.84 25.92L111.84 26.16L112.8 26.16L112.8 26.4L114.72 26.4L114.72 26.16L114.96 26.16L114.96 25.92L115.2 25.92L115.2 26.16L120.48 26.16L120.48 26.4L121.68 26.4L121.68 26.16L122.64 26.16L122.64 25.92L123.12 25.92L123.12 26.16L123.84 26.16L123.84 25.92L124.08 25.92L124.08 26.16L126.24 26.16L126.24 26.4L126.96 26.4L126.96 26.64L129.36 26.64L129.36 26.4L129.84 26.4L129.84 26.16L130.08 26.16L130.08 25.92L130.32 25.92L130.32 25.68L130.56 25.68L130.56 24L130.8 24L130.8 23.52L131.04 23.52L131.04 23.04L131.28 23.04L131.28 20.88L131.04 20.88L131.04 17.76L130.56 17.76L130.56 17.52L129.84 17.52L129.84 17.76L129.6 17.76L129.6 18L129.36 18L129.36 18.48L129.12 18.48L129.12 18.96L128.88 18.96L128.88 19.92L128.64 19.92L128.64 20.64L128.4 20.64L128.4 20.88L128.16 20.88L128.16 21.36L127.92 21.36L127.92 21.6L127.68 21.6L127.68 21.84L127.2 21.84L127.2 22.08L126.96 22.08L126.96 22.32L126.72 22.32L126.72 22.8L126.48 22.8L126.48 23.04L126.24 23.04L126.24 23.28L126 23.28L126 23.52L125.52 23.52L125.52 23.76L125.28 23.76L125.28 24L124.8 24L124.8 24.24L124.32 24.24L124.32 24.48L123.84 24.48L123.84 24.72L123.12 24.72L123.12 24.96L119.52 24.96L119.52 24.72L118.8 24.72L118.8 24.48L117.6 24.48L117.6 24.24L117.36 24.24L117.36 24L116.88 24L116.88 23.76L116.64 23.76L116.64 23.52L116.4 23.52L116.4 23.04L116.16 23.04L116.16 22.8L115.92 22.8L115.92 17.28L116.16 17.28L116.16 16.08L116.4 16.08L116.4 15.6L116.64 15.6L116.64 15.12L116.88 15.12L116.88 14.88L117.12 14.88L117.12 14.64L119.28 14.64L119.28 14.88L119.76 14.88L119.76 15.12L120 15.12L120 15.36L120.24 15.36L120.24 15.6L120.48 15.6L120.48 15.84L120.72 15.84L120.72 16.08L120.96 16.08L120.96 16.32L121.2 16.32L121.2 16.56L121.44 16.56L121.44 17.04L121.68 17.04L121.68 17.52L121.92 17.52L121.92 17.76L122.4 17.76L122.4 18L123.12 18L123.12 17.76L123.6 17.76L123.6 17.04L123.84 17.04L123.84 14.4L124.08 14.4L124.08 8.88L123.84 8.88L123.84 8.64L123.6 8.64L123.6 8.4L122.4 8.4L122.4 8.64L122.16 8.64L122.16 8.88L121.92 8.88L121.92 9.36L121.68 9.36L121.68 10.08L121.44 10.08L121.44 10.56L121.2 10.56L121.2 11.04L120.96 11.04L120.96 11.28L120.72 11.28L120.72 11.52L120.48 11.52L120.48 11.76L120.24 11.76L120.24 12L119.76 12L119.76 12.24L119.28 12.24L119.28 12.48L118.08 12.48L118.08 12.72L117.84 12.72L117.84 12.48L117.12 12.48L117.12 12.24L116.88 12.24L116.88 12L116.64 12L116.64 7.2L116.88 7.2L116.88 5.28L117.12 5.28L117.12 4.8L117.36 4.8L117.36 4.56L117.6 4.56L117.6 4.08L117.84 4.08L117.84 3.84L118.8 3.84L118.8 3.6L119.52 3.6L119.52 3.36L120 3.36L120 2.64L120.24 2.64L120.24 3.12L120.48 3.12L120.48 3.36L123.84 3.36L123.84 3.6L124.8 3.6L124.8 3.84L125.04 3.84L125.04 4.08L125.28 4.08L125.28 4.32L125.52 4.32L125.52 4.56L126 4.56L126 4.8L126.24 4.8L126.24 5.04L126.48 5.04L126.48 5.28L126.72 5.28L126.72 5.76L126.96 5.76L126.96 6L127.2 6L127.2 6.48L127.44 6.48L127.44 6.72L127.68 6.72L127.68 7.2L127.92 7.2L127.92 7.44L128.16 7.44L128.16 7.92L128.4 7.92L128.4 8.16L128.64 8.16L128.64 8.64L128.88 8.64L128.88 8.88L129.12 8.88L129.12 9.36L129.36 9.36L129.36 9.6L129.84 9.6L129.84 9.84L130.8 9.84L130.8 9.6L131.04 9.6L131.04 9.12L131.28 9.12L131.28 7.44L131.52 7.44L131.52 6.96L131.28 6.96L131.28 4.32L131.52 4.32L131.52 2.16L131.28 2.16L131.28 1.68L131.04 1.68L131.04 1.44L130.56 1.44L130.56 1.2L130.08 1.2L130.08 0.96L127.44 0.96L127.44 0.72L125.28 0.72L125.28 0.96L120.96 0.96L120.96 0.72L120.24 0.72L120.24 0.48L119.04 0.48L119.04 0.72L118.56 0.72L118.56 0.96L118.32 0.96L118.32 0.72L117.12 0.72L117.12 0.48L114.24 0.48L114 0.48M147.36 0.48L147.36 0.48L147.36 0.72L146.88 0.72L146.88 0.96L146.4 0.96L146.4 1.2L146.16 1.2L146.16 1.44L145.92 1.44L145.92 2.64L146.16 2.64L146.16 2.88L146.4 2.88L146.4 3.12L147.12 3.12L147.12 3.36L147.84 3.36L147.84 3.6L148.08 3.6L148.08 3.84L148.32 3.84L148.32 4.08L148.56 4.08L148.56 4.32L148.8 4.32L148.8 4.56L149.04 4.56L149.04 5.04L149.28 5.04L149.28 5.52L149.52 5.52L149.52 6.24L149.76 6.24L149.76 7.2L150 7.2L150 8.16L150.24 8.16L150.24 8.88L150.48 8.88L150.48 9.36L150.72 9.36L150.72 9.84L150.96 9.84L150.96 10.56L151.2 10.56L151.2 11.04L151.44 11.04L151.44 12.72L151.68 12.72L151.68 13.2L151.92 13.2L151.92 13.68L152.16 13.68L152.16 14.88L152.4 14.88L152.4 15.6L152.64 15.6L152.64 16.08L152.88 16.08L152.88 16.8L153.12 16.8L153.12 18.48L153.36 18.48L153.36 19.2L153.6 19.2L153.6 19.68L153.84 19.68L153.84 20.88L154.08 20.88L154.08 21.36L154.32 21.36L154.32 22.32L154.56 22.32L154.56 23.76L154.8 23.76L154.8 24.72L155.04 24.72L155.04 25.44L155.28 25.44L155.28 25.92L155.52 25.92L155.52 26.16L155.76 26.16L155.76 26.64L156.24 26.64L156.24 26.88L156.72 26.88L156.72 27.12L157.2 27.12L157.2 26.88L157.44 26.88L157.44 26.64L157.68 26.64L157.68 26.16L157.92 26.16L157.92 25.68L158.16 25.68L158.16 24.96L158.4 24.96L158.4 24L158.64 24L158.64 22.56L158.88 22.56L158.88 21.36L159.12 21.36L159.12 20.64L159.36 20.64L159.36 20.16L159.6 20.16L159.6 19.68L159.84 19.68L159.84 18.72L160.08 18.72L160.08 17.04L160.32 17.04L160.32 16.32L160.56 16.32L160.56 15.84L160.8 15.84L160.8 15.36L161.04 15.36L161.04 14.88L161.28 14.88L161.28 14.16L161.52 14.16L161.52 13.2L161.76 13.2L161.76 12.48L162 12.48L162 12L162.24 12L162.24 11.52L163.2 11.52L163.2 12L163.44 12L163.44 12.48L163.68 12.48L163.68 12.96L163.92 12.96L163.92 13.68L164.16 13.68L164.16 14.4L164.4 14.4L164.4 15.12L164.64 15.12L164.64 15.6L164.88 15.6L164.88 16.08L165.12 16.08L165.12 17.04L165.36 17.04L165.36 18.24L165.6 18.24L165.6 19.68L165.84 19.68L165.84 20.64L166.08 20.64L166.08 21.36L166.32 21.36L166.32 22.32L166.56 22.32L166.56 22.8L166.32 22.8L166.32 24L166.56 24L166.56 24.48L166.8 24.48L166.8 24.96L167.04 24.96L167.04 25.44L167.28 25.44L167.28 25.92L167.52 25.92L167.52 26.16L167.76 26.16L167.76 26.4L168 26.4L168 26.64L169.2 26.64L169.2 26.4L169.44 26.4L169.44 25.92L169.68 25.92L169.68 25.44L169.92 25.44L169.92 24.48L170.16 24.48L170.16 23.76L170.4 23.76L170.4 23.04L170.64 23.04L170.64 22.08L170.88 22.08L170.88 21.6L171.12 21.6L171.12 20.88L171.36 20.88L171.36 20.16L171.6 20.16L171.6 19.44L171.84 19.44L171.84 18.48L172.08 18.48L172.08 18L172.32 18L172.32 17.28L172.56 17.28L172.56 16.32L172.8 16.32L172.8 15.36L173.04 15.36L173.04 14.64L173.28 14.64L173.28 13.92L173.52 13.92L173.52 13.44L173.76 13.44L173.76 12.96L174 12.96L174 11.52L174.24 11.52L174.24 10.8L174.48 10.8L174.48 10.32L174.72 10.32L174.72 9.6L174.96 9.6L174.96 9.12L175.2 9.12L175.2 8.64L175.44 8.64L175.44 7.92L175.68 7.92L175.68 7.2L175.92 7.2L175.92 6.72L176.16 6.72L176.16 6L176.4 6L176.4 5.52L176.64 5.52L176.64 4.8L176.88 4.8L176.88 4.32L177.12 4.32L177.12 4.08L177.36 4.08L177.36 3.84L177.84 3.84L177.84 3.6L178.08 3.6L178.08 3.36L178.32 3.36L178.32 3.12L178.8 3.12L178.8 2.88L179.04 2.88L179.04 2.64L179.28 2.64L179.28 2.4L179.52 2.4L179.52 2.16L179.76 2.16L179.76 1.44L179.52 1.44L179.52 1.2L179.28 1.2L179.28 0.96L179.04 0.96L179.04 0.72L178.32 0.72L178.32 0.48L176.88 0.48L176.88 0.72L176.4 0.72L176.4 0.48L174.96 0.48L174.96 0.72L174.24 0.72L174.24 0.48L173.28 0.48L173.28 0.72L172.56 0.72L172.56 0.96L172.08 0.96L172.08 1.2L171.84 1.2L171.84 2.64L172.32 2.64L172.32 2.88L172.8 2.88L172.8 3.12L173.28 3.12L173.28 3.6L173.52 3.6L173.52 4.32L173.76 4.32L173.76 6.72L173.52 6.72L173.52 7.68L173.28 7.68L173.28 8.4L173.04 8.4L173.04 9.36L172.8 9.36L172.8 10.32L172.56 10.32L172.56 11.28L172.32 11.28L172.32 12L172.08 12L172.08 12.96L171.84 12.96L171.84 13.68L171.6 13.68L171.6 14.4L171.36 14.4L171.36 15.12L171.12 15.12L171.12 15.6L170.88 15.6L170.88 16.08L170.64 16.08L170.64 16.32L170.4 16.32L170.4 16.56L169.68 16.56L169.68 16.32L169.44 16.32L169.44 16.08L169.2 16.08L169.2 15.6L168.96 15.6L168.96 15.12L168.72 15.12L168.72 14.64L168.48 14.64L168.48 13.68L168.24 13.68L168.24 12.48L168 12.48L168 11.28L167.76 11.28L167.76 10.8L167.52 10.8L167.52 10.32L167.28 10.32L167.28 9.6L167.04 9.6L167.04 9.12L166.8 9.12L166.8 8.4L166.56 8.4L166.56 7.44L166.32 7.44L166.32 6.24L166.08 6.24L166.08 4.56L165.84 4.56L165.84 4.32L166.08 4.32L166.08 3.84L166.32 3.84L166.32 3.6L166.56 3.6L166.56 3.36L166.8 3.36L166.8 3.12L167.04 3.12L167.04 2.88L167.52 2.88L167.52 2.64L167.76 2.64L167.76 2.4L168.24 2.4L168.24 2.16L168.48 2.16L168.48 0.96L167.76 0.96L167.76 0.72L163.68 0.72L163.68 0.48L161.28 0.48L161.28 0.72L159.6 0.72L159.6 0.96L158.88 0.96L158.88 1.2L158.4 1.2L158.4 2.4L158.64 2.4L158.64 2.64L159.12 2.64L159.12 2.88L159.6 2.88L159.6 3.12L159.84 3.12L159.84 3.36L160.08 3.36L160.08 3.6L160.32 3.6L160.32 3.84L160.56 3.84L160.56 4.08L160.8 4.08L160.8 4.32L161.04 4.32L161.04 4.8L161.28 4.8L161.28 5.28L161.52 5.28L161.52 5.76L161.28 5.76L161.28 6L161.52 6L161.52 6.24L161.76 6.24L161.76 6.48L161.52 6.48L161.52 6.72L161.28 6.72L161.28 6.96L161.04 6.96L161.04 7.44L160.8 7.44L160.8 8.16L160.56 8.16L160.56 9.12L160.32 9.12L160.32 11.04L160.08 11.04L160.08 11.52L159.84 11.52L159.84 12.24L159.6 12.24L159.6 12.72L159.36 12.72L159.36 13.44L159.12 13.44L159.12 14.16L158.88 14.16L158.88 14.88L158.64 14.88L158.64 15.6L158.4 15.6L158.4 16.32L158.16 16.32L158.16 16.56L157.44 16.56L157.44 16.32L157.2 16.32L157.2 15.36L156.96 15.36L156.96 14.88L156.72 14.88L156.72 14.4L156.48 14.4L156.48 13.68L156.24 13.68L156.24 13.2L156 13.2L156 12.48L155.76 12.48L155.76 11.76L155.52 11.76L155.52 9.84L155.28 9.84L155.28 9.36L155.04 9.36L155.04 8.64L154.8 8.64L154.8 7.92L154.56 7.92L154.56 6.72L154.32 6.72L154.32 6.24L154.08 6.24L154.08 3.6L154.32 3.6L154.32 3.36L154.56 3.36L154.56 3.12L155.04 3.12L155.04 2.88L155.52 2.88L155.52 2.64L156 2.64L156 2.4L156.24 2.4L156.24 2.16L156.48 2.16L156.48 1.44L156.24 1.44L156.24 0.96L154.56 0.96L154.56 0.72L153.84 0.72L153.84 0.48L153.12 0.48L153.12 0.72L152.4 0.72L152.4 0.96L151.2 0.96L151.2 0.72L148.8 0.72L148.8 0.48L147.6 0.48L147.36 0.48M38.64 0.96L38.64 0.96L38.64 1.2L37.2 1.2L37.2 1.68L36.96 1.68L36.96 1.92L36.72 1.92L36.72 1.2L33.84 1.2L33.84 1.44L33.6 1.44L33.6 1.92L33.36 1.92L33.36 2.88L33.6 2.88L33.6 3.36L34.08 3.36L34.08 3.6L34.32 3.6L34.32 3.84L34.8 3.84L34.8 4.08L35.04 4.08L35.04 4.32L35.28 4.32L35.28 4.56L35.52 4.56L35.52 4.8L35.76 4.8L35.76 5.04L36 5.04L36 5.28L36.24 5.28L36.24 5.76L36.48 5.76L36.48 6.96L36.72 6.96L36.72 7.44L36.48 7.44L36.48 7.92L36.72 7.92L36.72 14.64L36.48 14.64L36.48 15.12L36.24 15.12L36.24 15.36L35.28 15.36L35.28 15.12L35.04 15.12L35.04 14.88L34.8 14.88L34.8 14.4L34.56 14.4L34.56 14.16L34.32 14.16L34.32 13.68L34.08 13.68L34.08 13.44L33.84 13.44L33.84 12.96L33.6 12.96L33.6 12.72L33.36 12.72L33.36 12.48L32.88 12.48L32.88 12.24L32.64 12.24L32.64 12L32.16 12L32.16 11.52L31.92 11.52L31.92 11.28L31.68 11.28L31.68 11.04L31.44 11.04L31.44 10.56L31.2 10.56L31.2 10.32L30.96 10.32L30.96 10.08L30.72 10.08L30.72 9.84L30.48 9.84L30.48 9.36L30.24 9.36L30.24 9.12L30 9.12L30 8.88L29.76 8.88L29.76 8.4L29.52 8.4L29.52 7.92L29.28 7.92L29.28 7.68L29.04 7.68L29.04 7.2L28.8 7.2L28.8 6.96L28.56 6.96L28.56 6.72L28.32 6.72L28.32 6.48L28.08 6.48L28.08 6.24L27.84 6.24L27.84 5.76L27.6 5.76L27.6 5.52L27.36 5.52L27.36 5.04L27.12 5.04L27.12 4.8L26.88 4.8L26.88 4.32L26.64 4.32L26.64 4.08L26.4 4.08L26.4 3.84L26.16 3.84L26.16 3.6L25.92 3.6L25.92 3.36L25.68 3.36L25.68 3.12L25.44 3.12L25.44 2.88L25.2 2.88L25.2 2.4L24.96 2.4L24.96 2.16L24.72 2.16L24.72 1.92L24.24 1.92L24.24 1.68L24 1.68L24 1.44L23.52 1.44L23.52 1.2L19.2 1.2L19.2 1.44L18.24 1.44L18.24 1.68L18 1.68L18 2.88L18.48 2.88L18.48 3.12L18.72 3.12L18.72 3.36L19.2 3.36L19.2 3.6L19.44 3.6L19.44 3.84L19.92 3.84L19.92 4.08L20.16 4.08L20.16 4.32L20.4 4.32L20.4 4.8L20.64 4.8L20.64 5.28L20.88 5.28L20.88 9.12L20.64 9.12L20.64 10.08L20.88 10.08L20.88 10.32L20.64 10.32L20.64 12L20.4 12L20.4 12.72L20.16 12.72L20.16 14.4L20.4 14.4L20.4 19.68L20.16 19.68L20.16 20.88L19.92 20.88L19.92 21.12L19.68 21.12L19.68 21.36L19.44 21.36L19.44 21.6L18.72 21.6L18.72 21.84L18 21.84L18 22.08L17.28 22.08L17.28 22.32L16.56 22.32L16.56 22.56L16.08 22.56L16.08 22.8L15.6 22.8L15.6 23.04L15.12 23.04L15.12 23.52L14.88 23.52L14.88 24.24L15.12 24.24L15.12 24.72L15.36 24.72L15.36 24.96L15.6 24.96L15.6 25.2L15.84 25.2L15.84 25.44L16.08 25.44L16.08 25.68L16.32 25.68L16.32 25.92L16.56 25.92L16.56 26.16L16.8 26.16L16.8 26.4L17.52 26.4L17.52 26.64L18.72 26.64L18.72 26.4L21.84 26.4L21.84 26.64L23.76 26.64L23.76 26.4L24.72 26.4L24.72 26.64L26.4 26.64L26.4 26.4L26.88 26.4L26.88 26.16L27.12 26.16L27.12 25.92L27.36 25.92L27.36 25.68L27.6 25.68L27.6 24L27.36 24L27.36 23.52L27.12 23.52L27.12 23.04L26.88 23.04L26.88 22.8L26.4 22.8L26.4 22.56L25.92 22.56L25.92 22.32L25.68 22.32L25.68 22.08L25.2 22.08L25.2 21.84L24.72 21.84L24.72 21.6L24.48 21.6L24.48 21.36L24.24 21.36L24.24 21.12L24 21.12L24 20.4L23.76 20.4L23.76 18.24L23.52 18.24L23.52 17.28L23.76 17.28L23.76 15.36L23.52 15.36L23.52 14.64L23.76 14.64L23.76 14.4L23.52 14.4L23.52 13.2L23.76 13.2L23.76 12.48L23.52 12.48L23.52 11.04L23.76 11.04L23.76 10.08L24 10.08L24 9.84L24.24 9.84L24.24 9.6L24.96 9.6L24.96 9.84L25.2 9.84L25.2 10.08L25.44 10.08L25.44 10.32L25.68 10.32L25.68 10.8L25.92 10.8L25.92 11.04L26.16 11.04L26.16 11.52L26.4 11.52L26.4 11.76L26.64 11.76L26.64 12.24L26.88 12.24L26.88 12.48L27.12 12.48L27.12 13.2L27.36 13.2L27.36 13.68L27.6 13.68L27.6 14.16L27.84 14.16L27.84 14.4L28.08 14.4L28.08 14.64L28.32 14.64L28.32 15.12L28.56 15.12L28.56 15.36L28.8 15.36L28.8 15.6L29.04 15.6L29.04 15.84L29.28 15.84L29.28 16.32L29.52 16.32L29.52 16.56L29.76 16.56L29.76 16.8L30 16.8L30 17.04L30.24 17.04L30.24 17.28L30.48 17.28L30.48 17.52L30.72 17.52L30.72 17.76L30.96 17.76L30.96 18.24L31.2 18.24L31.2 18.48L31.44 18.48L31.44 18.72L31.68 18.72L31.68 18.96L31.92 18.96L31.92 19.2L32.16 19.2L32.16 19.44L32.4 19.44L32.4 19.68L32.64 19.68L32.64 20.16L32.88 20.16L32.88 20.4L33.12 20.4L33.12 20.88L33.36 20.88L33.36 21.12L33.6 21.12L33.6 21.36L33.84 21.36L33.84 21.6L34.08 21.6L34.08 22.08L34.32 22.08L34.32 22.32L34.56 22.32L34.56 22.56L34.8 22.56L34.8 23.28L35.04 23.28L35.04 23.52L35.28 23.52L35.28 24L35.52 24L35.52 24.24L35.76 24.24L35.76 24.48L36 24.48L36 24.72L36.24 24.72L36.24 25.2L36.48 25.2L36.48 25.44L36.72 25.44L36.72 25.68L37.2 25.68L37.2 25.92L37.44 25.92L37.44 26.16L37.92 26.16L37.92 26.4L39.12 26.4L39.12 26.16L39.36 26.16L39.36 25.92L39.6 25.92L39.6 25.44L39.84 25.44L39.84 24.96L40.08 24.96L40.08 23.76L39.84 23.76L39.84 23.04L39.6 23.04L39.6 21.12L39.36 21.12L39.36 20.88L38.88 20.88L38.88 20.64L39.36 20.64L39.36 20.4L39.6 20.4L39.6 16.56L39.36 16.56L39.36 13.68L39.12 13.68L39.12 12.48L39.36 12.48L39.36 6.96L39.6 6.96L39.6 6.48L39.84 6.48L39.84 5.52L40.08 5.52L40.08 5.28L40.32 5.28L40.32 5.04L40.56 5.04L40.56 4.8L40.8 4.8L40.8 4.56L41.04 4.56L41.04 4.32L41.52 4.32L41.52 4.08L41.76 4.08L41.76 3.84L42 3.84L42 3.6L42.48 3.6L42.48 3.12L42.72 3.12L42.72 1.68L42.48 1.68L42.48 1.44L42 1.44L42 1.2L41.04 1.2L41.04 0.96L38.88 0.96L38.64 0.96M204.48 0.96L204.48 0.96L204.48 1.2L203.52 1.2L203.52 1.44L203.04 1.44L203.04 1.68L202.8 1.68L202.8 1.92L202.56 1.92L202.56 2.4L202.32 2.4L202.32 8.16L202.56 8.16L202.56 8.4L202.32 8.4L202.32 8.64L202.08 8.64L202.08 9.12L202.32 9.12L202.32 12.24L202.08 12.24L202.08 14.4L201.84 14.4L201.84 15.84L202.08 15.84L202.08 21.36L201.84 21.36L201.84 22.32L201.6 22.32L201.6 22.8L201.12 22.8L201.12 23.04L200.88 23.04L200.88 23.28L200.16 23.28L200.16 23.52L199.2 23.52L199.2 23.76L198.48 23.76L198.48 24L198.24 24L198.24 24.24L198 24.24L198 25.92L198.24 25.92L198.24 26.16L198.48 26.16L198.48 26.4L198.96 26.4L198.96 26.64L202.56 26.64L202.56 26.4L204.96 26.4L204.96 26.64L209.76 26.64L209.76 26.4L210.48 26.4L210.48 26.64L211.92 26.64L211.92 26.4L213.84 26.4L213.84 26.64L218.16 26.64L218.16 26.4L218.88 26.4L218.88 26.16L219.36 26.16L219.36 25.92L219.84 25.92L219.84 25.44L220.08 25.44L220.08 24L220.32 24L220.32 22.56L220.56 22.56L220.56 21.12L220.32 21.12L220.32 19.68L220.56 19.68L220.56 17.04L220.32 17.04L220.32 16.8L219.12 16.8L219.12 17.04L218.88 17.04L218.88 17.28L218.64 17.28L218.64 17.76L218.4 17.76L218.4 18.24L218.16 18.24L218.16 18.96L217.92 18.96L217.92 19.44L217.68 19.44L217.68 19.92L217.44 19.92L217.44 20.4L217.2 20.4L217.2 20.64L216.96 20.64L216.96 21.36L216.72 21.36L216.72 21.84L216.48 21.84L216.48 22.08L216.24 22.08L216.24 22.56L216 22.56L216 22.8L215.76 22.8L215.76 23.04L215.28 23.04L215.28 23.28L214.8 23.28L214.8 23.52L214.32 23.52L214.32 23.76L213.6 23.76L213.6 24L212.64 24L212.64 24.24L211.92 24.24L211.92 24L209.76 24L209.76 23.76L208.8 23.76L208.8 23.52L208.08 23.52L208.08 23.28L207.6 23.28L207.6 23.04L207.36 23.04L207.36 22.8L207.12 22.8L207.12 22.56L206.88 22.56L206.88 21.36L206.64 21.36L206.64 18.24L206.4 18.24L206.4 17.76L206.64 17.76L206.64 16.56L206.4 16.56L206.4 16.32L206.64 16.32L206.64 15.12L206.4 15.12L206.4 14.64L206.64 14.64L206.64 11.52L206.4 11.52L206.4 10.08L206.64 10.08L206.64 7.68L206.4 7.68L206.4 7.2L206.64 7.2L206.64 5.04L206.88 5.04L206.88 4.32L207.12 4.32L207.12 4.08L207.36 4.08L207.36 3.84L207.6 3.84L207.6 3.6L207.84 3.6L207.84 3.36L208.08 3.36L208.08 3.12L208.56 3.12L208.56 2.88L209.04 2.88L209.04 2.64L209.52 2.64L209.52 1.68L209.28 1.68L209.28 1.44L207.36 1.44L207.36 1.2L205.92 1.2L205.92 0.96L204.72 0.96L204.48 0.96M183.84 1.2L183.84 1.2L183.84 1.44L183.36 1.44L183.36 1.68L183.12 1.68L183.12 2.16L182.88 2.16L182.88 3.12L183.12 3.12L183.12 3.36L183.36 3.36L183.36 3.6L184.08 3.6L184.08 3.84L185.04 3.84L185.04 4.08L185.52 4.08L185.52 4.32L186 4.32L186 4.56L186.24 4.56L186.24 4.8L186.48 4.8L186.48 5.04L186.72 5.04L186.72 5.52L186.96 5.52L186.96 9.36L187.2 9.36L187.2 10.8L186.96 10.8L186.96 12.48L187.2 12.48L187.2 13.68L186.96 13.68L186.96 15.36L187.2 15.36L187.2 17.28L186.96 17.28L186.96 17.76L187.2 17.76L187.2 18.48L187.44 18.48L187.44 22.08L187.2 22.08L187.2 22.56L186.96 22.56L186.96 23.04L186.72 23.04L186.72 23.28L186.48 23.28L186.48 23.52L186.24 23.52L186.24 23.76L186 23.76L186 24L185.76 24L185.76 24.24L185.28 24.24L185.28 24.48L183.84 24.48L183.84 24.72L183.6 24.72L183.6 25.92L184.08 25.92L184.08 26.16L184.56 26.16L184.56 26.4L186.24 26.4L186.24 26.64L188.64 26.64L188.64 26.4L192.24 26.4L192.24 26.64L193.68 26.64L193.68 26.4L194.4 26.4L194.4 26.16L194.64 26.16L194.64 25.92L194.88 25.92L194.88 25.2L194.64 25.2L194.64 24.96L194.4 24.96L194.4 24.72L193.68 24.72L193.68 24.48L193.2 24.48L193.2 24.24L192.72 24.24L192.72 24L192.24 24L192.24 23.52L192 23.52L192 23.28L191.76 23.28L191.76 23.04L191.52 23.04L191.52 19.68L191.28 19.68L191.28 9.84L191.52 9.84L191.52 5.04L191.76 5.04L191.76 4.8L192 4.8L192 4.56L192.24 4.56L192.24 4.32L192.48 4.32L192.48 4.08L192.96 4.08L192.96 3.84L193.68 3.84L193.68 3.6L194.16 3.6L194.16 3.36L194.4 3.36L194.4 3.12L194.88 3.12L194.88 2.88L195.12 2.88L195.12 1.68L194.88 1.68L194.88 1.44L194.4 1.44L194.4 1.2L190.8 1.2L190.8 1.44L186.72 1.44L186.72 1.2L184.08 1.2L183.84 1.2M235.44 2.16L235.68 2.4L235.68 2.64L235.92 2.64L235.92 2.88L236.16 2.88L236.16 3.12L237.12 3.12L237.12 2.64L237.36 2.64L237.36 3.12L238.56 3.12L238.56 3.36L239.52 3.36L239.52 3.6L240 3.6L240 3.84L240.48 3.84L240.48 4.08L240.96 4.08L240.96 4.32L241.2 4.32L241.2 4.56L241.44 4.56L241.44 4.8L241.92 4.8L241.92 5.04L242.16 5.04L242.16 5.28L242.4 5.28L242.4 5.52L242.64 5.52L242.64 5.76L242.88 5.76L242.88 6L243.12 6L243.12 6.48L243.36 6.48L243.36 6.72L243.6 6.72L243.6 6.96L243.84 6.96L243.84 7.44L244.08 7.44L244.08 8.16L244.32 8.16L244.32 8.88L244.56 8.88L244.56 9.84L244.8 9.84L244.8 15.12L244.56 15.12L244.56 16.08L244.32 16.08L244.32 16.8L244.08 16.8L244.08 17.52L243.84 17.52L243.84 18.24L243.6 18.24L243.6 18.96L243.36 18.96L243.36 19.68L243.12 19.68L243.12 20.16L242.88 20.16L242.88 20.4L242.64 20.4L242.64 20.64L242.4 20.64L242.4 21.12L242.16 21.12L242.16 21.36L241.92 21.36L241.92 21.6L241.68 21.6L241.68 21.84L241.44 21.84L241.44 22.08L241.2 22.08L241.2 22.32L240.96 22.32L240.96 22.56L240.48 22.56L240.48 22.8L240.24 22.8L240.24 23.04L240 23.04L240 23.28L239.52 23.28L239.52 23.52L239.04 23.52L239.04 23.76L238.8 23.76L238.8 24L238.32 24L238.32 24.24L238.08 24.24L238.08 24.48L237.12 24.48L237.12 24.72L235.92 24.72L235.92 24.96L235.68 24.96L235.68 24.72L234.96 24.72L234.96 24.48L234.24 24.48L234.24 24.72L233.28 24.72L233.28 24.48L232.32 24.48L232.32 24.24L232.08 24.24L232.08 24L231.84 24L231.84 23.76L231.6 23.76L231.6 23.52L231.36 23.52L231.36 23.28L231.12 23.28L231.12 22.8L230.88 22.8L230.88 22.08L230.64 22.08L230.64 16.32L230.4 16.32L230.4 15.6L230.64 15.6L230.64 11.52L230.88 11.52L230.88 8.16L231.12 8.16L231.12 6.96L230.88 6.96L230.88 6L230.64 6L230.64 5.52L231.12 5.52L231.12 4.56L231.36 4.56L231.36 4.08L231.6 4.08L231.6 3.84L231.84 3.84L231.84 3.6L232.32 3.6L232.32 3.36L232.8 3.36L232.8 3.12L233.76 3.12L233.76 2.88L234.96 2.88L234.96 2.64L235.44 2.64L235.44 2.4L235.44 2.16M102 243.84L102 243.84L102 244.08L101.28 244.08L101.28 244.32L100.56 244.32L100.56 244.56L100.08 244.56L100.08 244.8L99.36 244.8L99.36 245.04L99.12 245.04L99.12 245.28L98.88 245.28L98.88 245.52L98.4 245.52L98.4 245.76L97.68 245.76L97.68 246L97.44 246L97.44 246.24L97.2 246.24L97.2 246.48L96.96 246.48L96.96 246.72L96.48 246.72L96.48 246.96L96.24 246.96L96.24 247.2L96 247.2L96 247.68L95.76 247.68L95.76 248.16L95.52 248.16L95.52 248.64L95.28 248.64L95.28 249.12L95.04 249.12L95.04 249.36L94.8 249.36L94.8 249.84L94.56 249.84L94.56 250.32L94.32 250.32L94.32 251.04L94.08 251.04L94.08 252.24L93.84 252.24L93.84 253.68L93.6 253.68L93.6 255.36L93.84 255.36L93.84 258L94.08 258L94.08 259.2L94.32 259.2L94.32 259.68L94.56 259.68L94.56 260.16L94.8 260.16L94.8 260.64L95.04 260.64L95.04 261.36L95.28 261.36L95.28 261.84L95.52 261.84L95.52 262.32L95.76 262.32L95.76 262.56L96 262.56L96 262.8L96.24 262.8L96.24 263.28L96.72 263.28L96.72 263.52L96.96 263.52L96.96 263.76L97.2 263.76L97.2 264L97.44 264L97.44 264.24L97.68 264.24L97.68 264.48L97.92 264.48L97.92 264.72L98.4 264.72L98.4 264.96L98.64 264.96L98.64 265.2L99.12 265.2L99.12 265.44L99.36 265.44L99.36 265.68L99.84 265.68L99.84 265.92L100.56 265.92L100.56 266.16L101.76 266.16L101.76 266.4L104.4 266.4L104.4 266.64L104.64 266.64L104.64 266.4L105.84 266.4L105.84 266.16L106.32 266.16L106.32 265.92L107.28 265.92L107.28 265.68L107.76 265.68L107.76 265.44L108.24 265.44L108.24 265.2L108.48 265.2L108.48 264.96L108.96 264.96L108.96 264.72L109.2 264.72L109.2 264.48L109.44 264.48L109.44 264.24L109.68 264.24L109.68 264L109.92 264L109.92 263.76L110.16 263.76L110.16 263.28L110.4 263.28L110.4 262.8L110.64 262.8L110.64 262.56L110.88 262.56L110.88 262.08L111.12 262.08L111.12 261.6L111.36 261.6L111.36 260.16L111.6 260.16L111.6 258.48L111.36 258.48L111.36 258.24L111.12 258.24L111.12 258L109.92 258L109.92 258.24L109.68 258.24L109.68 258.48L109.44 258.48L109.44 259.44L109.2 259.44L109.2 261.12L108.96 261.12L108.96 261.84L108.72 261.84L108.72 262.32L108.48 262.32L108.48 262.56L108.24 262.56L108.24 263.04L107.76 263.04L107.76 263.28L107.52 263.28L107.52 263.52L107.28 263.52L107.28 263.76L107.04 263.76L107.04 264L106.8 264L106.8 264.24L106.56 264.24L106.56 264.48L105.36 264.48L105.36 264.72L104.88 264.72L104.88 264.96L102.96 264.96L102.96 264.72L102.24 264.72L102.24 264.48L101.76 264.48L101.76 264.24L101.28 264.24L101.28 264L101.04 264L101.04 263.76L100.56 263.76L100.56 263.52L100.32 263.52L100.32 263.28L100.08 263.28L100.08 263.04L99.84 263.04L99.84 262.8L99.6 262.8L99.6 262.56L99.36 262.56L99.36 262.08L99.12 262.08L99.12 261.36L98.88 261.36L98.88 260.64L98.64 260.64L98.64 258.48L98.4 258.48L98.4 256.32L98.16 256.32L98.16 255.6L98.4 255.6L98.4 253.92L98.64 253.92L98.64 251.28L98.88 251.28L98.88 250.32L99.12 250.32L99.12 249.6L99.36 249.6L99.36 249.12L99.6 249.12L99.6 248.64L99.84 248.64L99.84 248.4L100.08 248.4L100.08 247.92L100.32 247.92L100.32 247.68L100.56 247.68L100.56 247.44L100.8 247.44L100.8 247.2L101.28 247.2L101.28 246.96L101.52 246.96L101.52 246.72L102.72 246.72L102.72 246.48L103.2 246.48L103.2 246.24L104.16 246.24L104.16 246.48L104.88 246.48L104.88 246.72L105.6 246.72L105.6 246.96L106.08 246.96L106.08 247.2L106.56 247.2L106.56 247.44L106.8 247.44L106.8 247.68L107.28 247.68L107.28 248.16L107.52 248.16L107.52 248.4L107.76 248.4L107.76 248.64L108 248.64L108 249.12L108.24 249.12L108.24 249.36L108.48 249.36L108.48 249.84L108.72 249.84L108.72 250.32L108.96 250.32L108.96 250.8L109.2 250.8L109.2 251.04L109.44 251.04L109.44 251.28L109.68 251.28L109.68 251.52L109.92 251.52L109.92 251.76L111.12 251.76L111.12 251.52L111.36 251.52L111.36 251.04L111.6 251.04L111.6 250.56L111.84 250.56L111.84 245.04L111.6 245.04L111.6 244.56L111.36 244.56L111.36 244.32L110.88 244.32L110.88 244.08L109.68 244.08L109.68 244.32L109.2 244.32L109.2 244.8L108.96 244.8L108.96 245.04L107.76 245.04L107.76 244.8L107.28 244.8L107.28 244.56L106.56 244.56L106.56 244.32L106.08 244.32L106.08 244.08L104.64 244.08L104.64 244.32L104.4 244.32L104.4 244.08L103.2 244.08L103.2 243.84L102.24 243.84L102 243.84M144.24 243.84L144.24 243.84L144.24 244.08L143.52 244.08L143.52 244.32L142.56 244.32L142.56 244.56L142.08 244.56L142.08 244.8L141.6 244.8L141.6 245.04L141.12 245.04L141.12 245.28L140.88 245.28L140.88 245.52L140.64 245.52L140.64 245.76L140.4 245.76L140.4 246L140.16 246L140.16 246.24L139.92 246.24L139.92 246.48L139.68 246.48L139.68 246.72L139.44 246.72L139.44 247.2L139.2 247.2L139.2 247.44L138.96 247.44L138.96 247.68L138.72 247.68L138.72 247.92L138.48 247.92L138.48 248.4L138.24 248.4L138.24 248.88L138 248.88L138 249.36L137.76 249.36L137.76 249.84L137.52 249.84L137.52 250.32L137.28 250.32L137.28 251.28L137.04 251.28L137.04 252.24L136.8 252.24L136.8 258.48L137.04 258.48L137.04 259.2L137.28 259.2L137.28 260.16L137.52 260.16L137.52 260.64L137.76 260.64L137.76 261.12L138 261.12L138 261.6L138.24 261.6L138.24 262.08L138.48 262.08L138.48 262.56L138.72 262.56L138.72 262.8L138.96 262.8L138.96 263.04L139.2 263.04L139.2 263.52L139.44 263.52L139.44 263.76L139.68 263.76L139.68 264L139.92 264L139.92 264.24L140.16 264.24L140.16 264.48L140.4 264.48L140.4 264.72L140.64 264.72L140.64 264.96L141.12 264.96L141.12 265.2L141.6 265.2L141.6 265.44L141.84 265.44L141.84 265.68L142.56 265.68L142.56 265.92L143.04 265.92L143.04 266.16L143.76 266.16L143.76 266.4L144.96 266.4L144.96 266.64L146.4 266.64L146.4 266.4L148.08 266.4L148.08 266.16L149.52 266.16L149.52 265.92L150.24 265.92L150.24 265.68L150.72 265.68L150.72 265.44L150.96 265.44L150.96 265.2L151.2 265.2L151.2 264.96L151.68 264.96L151.68 264.72L151.92 264.72L151.92 264.48L152.16 264.48L152.16 264L152.4 264L152.4 263.76L152.64 263.76L152.64 263.52L152.88 263.52L152.88 263.28L153.12 263.28L153.12 262.8L153.36 262.8L153.36 262.56L153.6 262.56L153.6 262.08L153.84 262.08L153.84 261.6L154.08 261.6L154.08 261.12L154.32 261.12L154.32 260.64L154.56 260.64L154.56 259.2L154.32 259.2L154.32 258.48L154.08 258.48L154.08 258.24L153.84 258.24L153.84 258L152.88 258L152.88 258.24L152.64 258.24L152.64 258.96L152.4 258.96L152.4 259.92L152.16 259.92L152.16 260.88L151.92 260.88L151.92 261.6L151.68 261.6L151.68 261.84L151.44 261.84L151.44 262.32L151.2 262.32L151.2 262.56L150.96 262.56L150.96 263.04L150.72 263.04L150.72 263.28L150.48 263.28L150.48 263.52L150.24 263.52L150.24 263.76L149.76 263.76L149.76 264L149.28 264L149.28 264.24L149.04 264.24L149.04 264.48L148.56 264.48L148.56 264.72L148.08 264.72L148.08 264.96L145.2 264.96L145.2 264.72L144.48 264.72L144.48 264.48L144 264.48L144 264.24L143.76 264.24L143.76 264L143.52 264L143.52 263.76L143.04 263.76L143.04 263.52L142.8 263.52L142.8 263.28L142.56 263.28L142.56 262.8L142.32 262.8L142.32 262.56L142.08 262.56L142.08 262.08L141.84 262.08L141.84 261.84L141.6 261.84L141.6 261.36L141.36 261.36L141.36 260.64L141.12 260.64L141.12 259.92L140.88 259.92L140.88 258.72L140.64 258.72L140.64 255.6L140.4 255.6L140.4 254.64L140.64 254.64L140.64 253.68L140.88 253.68L140.88 252.48L140.64 252.48L140.64 252.24L140.88 252.24L140.88 251.52L141.12 251.52L141.12 250.56L141.36 250.56L141.36 249.6L141.6 249.6L141.6 248.88L141.84 248.88L141.84 248.64L142.08 248.64L142.08 247.92L142.32 247.92L142.32 247.68L142.56 247.68L142.56 247.44L142.8 247.44L142.8 247.2L143.28 247.2L143.28 246.96L143.52 246.96L143.52 246.72L144 246.72L144 246.48L144.48 246.48L144.48 246.24L145.2 246.24L145.2 246L146.64 246L146.64 246.24L148.32 246.24L148.32 246.48L148.8 246.48L148.8 246.72L149.28 246.72L149.28 246.96L149.52 246.96L149.52 247.2L149.76 247.2L149.76 247.44L150 247.44L150 247.68L150.24 247.68L150.24 247.92L150.48 247.92L150.48 248.16L150.72 248.16L150.72 248.4L150.96 248.4L150.96 248.64L151.2 248.64L151.2 249.12L151.44 249.12L151.44 249.36L151.68 249.36L151.68 249.84L151.92 249.84L151.92 250.56L152.16 250.56L152.16 251.28L152.4 251.28L152.4 251.76L152.64 251.76L152.64 252L152.88 252L152.88 252.24L153.84 252.24L153.84 252L154.08 252L154.08 251.52L154.32 251.52L154.32 246.96L154.56 246.96L154.56 245.52L154.32 245.52L154.32 244.56L154.08 244.56L154.08 244.32L153.84 244.32L153.84 244.08L153.6 244.08L153.6 243.84L152.88 243.84L152.88 244.08L152.4 244.08L152.4 244.56L151.92 244.56L151.92 244.8L151.44 244.8L151.44 245.04L150.48 245.04L150.48 244.8L149.52 244.8L149.52 244.56L148.8 244.56L148.8 244.32L147.84 244.32L147.84 244.08L144.72 244.08L144.72 243.84L144.48 243.84L144.24 243.84M119.04 244.08L119.04 244.08L119.04 244.32L115.44 244.32L115.44 244.56L115.2 244.56L115.2 244.8L114.96 244.8L114.96 245.04L114.72 245.04L114.72 246.24L114.96 246.24L114.96 246.48L115.2 246.48L115.2 246.72L115.92 246.72L115.92 246.96L116.64 246.96L116.64 247.2L117.6 247.2L117.6 247.44L117.84 247.44L117.84 247.68L118.08 247.68L118.08 248.16L118.32 248.16L118.32 248.88L118.56 248.88L118.56 254.16L118.8 254.16L118.8 255.84L118.56 255.84L118.56 256.32L118.8 256.32L118.8 260.64L118.56 260.64L118.56 263.76L118.32 263.76L118.32 264.24L118.08 264.24L118.08 264.48L117.6 264.48L117.6 264.72L117.36 264.72L117.36 264.96L116.4 264.96L116.4 265.2L116.16 265.2L116.16 265.44L115.92 265.44L115.92 266.16L116.16 266.16L116.16 266.4L117.36 266.4L117.36 266.64L117.84 266.64L117.84 266.4L119.52 266.4L119.52 266.64L121.92 266.64L121.92 266.4L122.4 266.4L122.4 266.64L123.36 266.64L123.36 266.4L125.52 266.4L125.52 266.64L127.2 266.64L127.2 266.4L128.4 266.4L128.4 266.16L129.84 266.16L129.84 265.92L130.8 265.92L130.8 265.68L131.28 265.68L131.28 265.44L131.76 265.44L131.76 265.2L132 265.2L132 264.96L132.24 264.96L132.24 264.72L132.48 264.72L132.48 264.48L132.96 264.48L132.96 264.24L133.2 264.24L133.2 264L133.44 264L133.44 263.76L133.68 263.76L133.68 263.52L133.92 263.52L133.92 263.28L134.16 263.28L134.16 262.8L134.4 262.8L134.4 262.32L134.64 262.32L134.64 261.84L134.4 261.84L134.4 260.16L134.16 260.16L134.16 259.44L133.92 259.44L133.92 258.96L133.68 258.96L133.68 258.48L133.44 258.48L133.44 258.24L133.2 258.24L133.2 258L132.96 258L132.96 257.76L132.48 257.76L132.48 257.52L132.24 257.52L132.24 257.28L131.76 257.28L131.76 257.04L131.52 257.04L131.52 256.8L131.04 256.8L131.04 256.56L130.8 256.56L130.8 256.32L130.32 256.32L130.32 256.08L130.08 256.08L130.08 255.84L129.84 255.84L129.84 255.6L129.6 255.6L129.6 255.36L129.36 255.36L129.36 255.12L129.6 255.12L129.6 254.88L129.84 254.88L129.84 254.64L130.32 254.64L130.32 254.4L131.04 254.4L131.04 254.16L131.28 254.16L131.28 253.92L131.76 253.92L131.76 253.68L132 253.68L132 253.44L132.48 253.44L132.48 253.2L132.72 253.2L132.72 252.96L132.96 252.96L132.96 252.72L133.2 252.72L133.2 252.48L133.44 252.48L133.44 252.24L133.68 252.24L133.68 251.76L133.92 251.76L133.92 250.56L134.16 250.56L134.16 249.12L133.92 249.12L133.92 248.4L133.68 248.4L133.68 247.2L133.44 247.2L133.44 246.96L133.2 246.96L133.2 246.72L132.96 246.72L132.96 246.48L132.72 246.48L132.72 246L132.48 246L132.48 245.76L132 245.76L132 245.52L131.28 245.52L131.28 245.28L130.56 245.28L130.56 245.04L130.32 245.04L130.32 244.8L129.6 244.8L129.6 244.56L128.88 244.56L128.88 244.32L127.92 244.32L127.92 244.08L125.76 244.08L125.76 244.32L124.56 244.32L124.56 244.08L123.84 244.08L123.84 244.32L123.36 244.32L123.36 244.08L122.4 244.08L122.4 244.32L121.2 244.32L121.2 244.08L119.28 244.08L119.04 244.08M124.8 246.72L126.24 246.96L126.24 247.2L126.96 247.2L126.96 247.44L127.2 247.44L127.2 247.2L127.44 247.2L127.44 247.44L127.92 247.44L127.92 247.68L128.16 247.68L128.16 247.92L128.4 247.92L128.4 248.16L128.64 248.16L128.64 248.4L128.88 248.4L128.88 248.88L129.12 248.88L129.12 249.84L129.36 249.84L129.36 251.76L129.12 251.76L129.12 252.24L128.88 252.24L128.88 252.72L128.64 252.72L128.64 252.96L128.4 252.96L128.4 253.44L128.16 253.44L128.16 253.68L127.68 253.68L127.68 253.92L127.2 253.92L127.2 254.16L126.48 254.16L126.48 254.4L124.8 254.4L124.8 254.64L124.08 254.64L124.08 254.4L123.12 254.4L123.12 254.16L122.88 254.16L122.88 253.92L122.64 253.92L122.64 253.44L122.4 253.44L122.4 249.36L122.64 249.36L122.64 248.16L122.88 248.16L122.88 247.68L123.12 247.68L123.12 247.44L123.6 247.44L123.6 247.2L124.8 247.2L124.8 246.96L124.8 246.72M122.88 255.84L124.8 256.08L124.8 256.32L125.76 256.32L125.76 256.56L126.48 256.56L126.48 256.8L127.2 256.8L127.2 257.04L127.68 257.04L127.68 257.28L128.16 257.28L128.16 257.52L128.64 257.52L128.64 257.76L128.88 257.76L128.88 258L129.12 258L129.12 258.24L129.36 258.24L129.36 258.72L129.6 258.72L129.6 259.2L129.84 259.2L129.84 259.92L130.08 259.92L130.08 262.08L129.84 262.08L129.84 263.04L129.6 263.04L129.6 263.52L129.36 263.52L129.36 263.76L129.12 263.76L129.12 264L128.88 264L128.88 264.24L128.4 264.24L128.4 264.48L128.16 264.48L128.16 264.72L127.44 264.72L127.44 264.96L127.2 264.96L127.2 265.2L126.72 265.2L126.72 265.44L126.24 265.44L126.24 265.2L123.84 265.2L123.84 264.96L123.36 264.96L123.36 264.72L122.88 264.72L122.88 264.48L122.64 264.48L122.64 264.24L122.4 264.24L122.4 263.28L122.16 263.28L122.16 262.56L121.92 262.56L121.92 262.32L122.16 262.32L122.16 259.68L121.92 259.68L121.92 259.2L122.16 259.2L122.16 257.52L122.4 257.52L122.4 256.8L122.64 256.8L122.64 256.32L122.88 256.32L122.88 256.08L122.88 255.84M152.16 268.56L152.16 268.56L152.16 268.8L151.44 268.8L151.44 269.04L150.96 269.04L150.96 269.28L150.72 269.28L150.72 269.52L150.24 269.52L150.24 269.76L150 269.76L150 270L149.76 270L149.76 270.24L149.28 270.24L149.28 270.48L149.04 270.48L149.04 270.72L148.8 270.72L148.8 271.44L148.56 271.44L148.56 271.92L148.32 271.92L148.32 272.16L148.08 272.16L148.08 272.4L147.84 272.4L147.84 273.12L147.6 273.12L147.6 273.84L147.36 273.84L147.36 274.56L147.12 274.56L147.12 275.04L146.88 275.04L146.88 275.76L146.64 275.76L146.64 276.72L146.4 276.72L146.4 277.68L146.16 277.68L146.16 279.12L146.4 279.12L146.4 280.08L146.16 280.08L146.16 282L146.4 282L146.4 283.2L146.64 283.2L146.64 284.16L146.88 284.16L146.88 285.12L147.12 285.12L147.12 285.84L147.36 285.84L147.36 286.56L147.6 286.56L147.6 287.28L147.84 287.28L147.84 287.52L148.08 287.52L148.08 287.76L148.32 287.76L148.32 288.24L148.56 288.24L148.56 288.72L148.8 288.72L148.8 288.96L149.04 288.96L149.04 289.44L149.28 289.44L149.28 289.68L149.52 289.68L149.52 289.92L149.76 289.92L149.76 290.16L150 290.16L150 290.4L150.24 290.4L150.24 290.64L150.48 290.64L150.48 290.88L150.96 290.88L150.96 291.12L151.44 291.12L151.44 291.36L151.92 291.36L151.92 291.6L152.64 291.6L152.64 291.84L153.84 291.84L153.84 292.08L154.08 292.08L154.08 291.84L155.28 291.84L155.28 291.6L155.76 291.6L155.76 291.36L156.24 291.36L156.24 291.12L156.48 291.12L156.48 290.88L156.72 290.88L156.72 290.64L157.2 290.64L157.2 290.4L157.44 290.4L157.44 289.68L157.92 289.68L157.92 289.44L158.16 289.44L158.16 289.2L158.4 289.2L158.4 288.96L158.64 288.96L158.64 288.72L158.88 288.72L158.88 288.48L159.12 288.48L159.12 288.24L159.36 288.24L159.36 287.76L159.6 287.76L159.6 287.52L159.84 287.52L159.84 286.8L160.08 286.8L160.08 286.08L160.32 286.08L160.32 285.84L160.56 285.84L160.56 283.68L160.8 283.68L160.8 282.72L161.04 282.72L161.04 279.6L160.8 279.6L160.8 276L160.56 276L160.56 275.04L160.32 275.04L160.32 274.8L160.08 274.8L160.08 274.08L159.84 274.08L159.84 273.6L159.6 273.6L159.6 273.12L159.36 273.12L159.36 272.88L159.12 272.88L159.12 272.4L158.88 272.4L158.88 272.16L158.64 272.16L158.64 271.92L158.4 271.92L158.4 271.44L158.16 271.44L158.16 271.2L157.92 271.2L157.92 270.96L157.68 270.96L157.68 270.48L157.44 270.48L157.44 270.24L157.2 270.24L157.2 270L156.96 270L156.96 269.76L156.48 269.76L156.48 269.52L156.24 269.52L156.24 269.28L155.76 269.28L155.76 269.04L155.28 269.04L155.28 268.8L154.32 268.8L154.32 268.56L152.4 268.56L152.16 268.56M185.04 268.56L185.04 268.56L185.04 268.8L184.32 268.8L184.32 269.04L183.12 269.04L183.12 269.28L182.88 269.28L182.88 269.52L182.4 269.52L182.4 269.76L181.92 269.76L181.92 270L181.68 270L181.68 270.24L180.96 270.24L180.96 270.48L180.72 270.48L180.72 270.72L180.48 270.72L180.48 270.96L180.24 270.96L180.24 271.2L180 271.2L180 271.44L179.76 271.44L179.76 271.92L179.28 271.92L179.28 272.16L179.04 272.16L179.04 272.64L178.8 272.64L178.8 272.88L178.56 272.88L178.56 273.12L178.32 273.12L178.32 273.6L178.08 273.6L178.08 276L178.32 276L178.32 277.44L178.56 277.44L178.56 278.4L178.8 278.4L178.8 279.12L179.04 279.12L179.04 279.6L179.28 279.6L179.28 279.84L179.52 279.84L179.52 280.32L179.76 280.32L179.76 280.56L180 280.56L180 280.8L180.24 280.8L180.24 281.04L180.48 281.04L180.48 281.28L180.96 281.28L180.96 281.52L181.92 281.52L181.92 281.76L182.16 281.76L182.16 282L183.12 282L183.12 282.24L183.36 282.24L183.36 282.48L186.24 282.48L186.24 282.24L186.96 282.24L186.96 282L187.44 282L187.44 281.76L187.68 281.76L187.68 282L187.92 282L187.92 282.24L188.16 282.24L188.16 283.68L187.92 283.68L187.92 285.12L187.68 285.12L187.68 285.84L187.44 285.84L187.44 286.08L187.2 286.08L187.2 286.56L186.96 286.56L186.96 286.8L186.72 286.8L186.72 287.04L186.48 287.04L186.48 287.28L186.24 287.28L186.24 287.52L186 287.52L186 287.76L185.28 287.76L185.28 287.52L184.8 287.52L184.8 287.28L184.56 287.28L184.56 287.04L184.32 287.04L184.32 286.56L184.08 286.56L184.08 285.84L183.84 285.84L183.84 285.36L183.6 285.36L183.6 284.88L183.36 284.88L183.36 284.64L183.12 284.64L183.12 284.4L182.4 284.4L182.4 284.16L181.2 284.16L181.2 284.4L180.72 284.4L180.72 284.64L180.24 284.64L180.24 284.88L180 284.88L180 285.12L179.76 285.12L179.76 285.84L179.52 285.84L179.52 286.32L179.28 286.32L179.28 288.24L179.52 288.24L179.52 288.96L179.76 288.96L179.76 289.2L180 289.2L180 289.44L180.24 289.44L180.24 289.68L180.48 289.68L180.48 289.92L180.72 289.92L180.72 290.4L180.96 290.4L180.96 290.64L181.2 290.64L181.2 290.88L181.92 290.88L181.92 291.12L182.88 291.12L182.88 291.36L185.28 291.36L185.28 291.12L186.48 291.12L186.48 290.88L186.96 290.88L186.96 290.64L187.68 290.64L187.68 290.4L187.92 290.4L187.92 290.16L188.4 290.16L188.4 289.92L188.88 289.92L188.88 289.2L189.36 289.2L189.36 288.96L189.6 288.96L189.6 288.72L189.84 288.72L189.84 288.48L190.08 288.48L190.08 288L190.32 288L190.32 287.52L190.56 287.52L190.56 287.04L190.8 287.04L190.8 286.8L191.04 286.8L191.04 286.56L191.28 286.56L191.28 286.08L191.52 286.08L191.52 285.36L191.76 285.36L191.76 285.12L192 285.12L192 284.16L192.24 284.16L192.24 282.96L192.48 282.96L192.48 282L192.72 282L192.72 280.32L192.96 280.32L192.96 278.16L192.72 278.16L192.72 276.72L192.48 276.72L192.48 274.8L192.24 274.8L192.24 274.32L192 274.32L192 273.84L191.76 273.84L191.76 273.6L191.52 273.6L191.52 273.12L191.28 273.12L191.28 272.64L191.04 272.64L191.04 272.16L190.8 272.16L190.8 271.68L190.56 271.68L190.56 271.2L190.32 271.2L190.32 270.72L190.08 270.72L190.08 270.48L189.6 270.48L189.6 270.24L189.36 270.24L189.36 270L189.12 270L189.12 269.76L188.64 269.76L188.64 269.52L187.92 269.52L187.92 269.28L187.68 269.28L187.68 269.04L187.2 269.04L187.2 268.8L186 268.8L186 268.56L185.28 268.56L185.04 268.56M73.44 268.8L73.44 268.8L73.44 269.04L72 269.04L72 269.28L70.56 269.28L70.56 269.52L70.08 269.52L70.08 269.76L69.84 269.76L69.84 271.44L70.08 271.44L70.08 271.68L70.32 271.68L70.32 271.92L70.56 271.92L70.56 272.16L70.8 272.16L70.8 272.4L71.04 272.4L71.04 272.64L71.28 272.64L71.28 272.88L71.52 272.88L71.52 273.84L71.28 273.84L71.28 275.28L71.04 275.28L71.04 276.24L70.8 276.24L70.8 276.72L70.56 276.72L70.56 277.2L70.32 277.2L70.32 277.68L70.08 277.68L70.08 279.36L69.84 279.36L69.84 279.84L69.6 279.84L69.6 280.56L69.36 280.56L69.36 281.04L69.12 281.04L69.12 281.52L68.88 281.52L68.88 282L68.64 282L68.64 282.24L67.92 282.24L67.92 282L67.68 282L67.68 281.52L67.44 281.52L67.44 280.8L67.2 280.8L67.2 279.84L66.96 279.84L66.96 279.12L66.72 279.12L66.72 278.4L66.48 278.4L66.48 277.92L66.24 277.92L66.24 276.96L66 276.96L66 276L65.76 276L65.76 274.8L65.52 274.8L65.52 274.08L65.28 274.08L65.28 272.4L65.52 272.4L65.52 272.16L65.76 272.16L65.76 271.92L66 271.92L66 271.68L66.24 271.68L66.24 271.44L66.48 271.44L66.48 271.2L66.72 271.2L66.72 269.76L66.48 269.76L66.48 269.52L66.24 269.52L66.24 269.28L65.04 269.28L65.04 269.04L60.48 269.04L60.48 269.28L59.76 269.28L59.76 269.52L59.28 269.52L59.28 269.28L58.8 269.28L58.8 269.52L58.32 269.52L58.32 270L58.08 270L58.08 270.72L58.32 270.72L58.32 271.2L58.56 271.2L58.56 271.44L59.04 271.44L59.04 271.68L59.28 271.68L59.28 271.92L59.52 271.92L59.52 272.16L59.76 272.16L59.76 272.4L60 272.4L60 272.64L60.24 272.64L60.24 273.12L60.48 273.12L60.48 273.36L60.72 273.36L60.72 274.8L60.96 274.8L60.96 275.76L61.2 275.76L61.2 276.48L61.44 276.48L61.44 277.2L61.68 277.2L61.68 277.68L61.92 277.68L61.92 278.64L62.16 278.64L62.16 279.6L62.4 279.6L62.4 280.08L62.64 280.08L62.64 280.32L62.88 280.32L62.88 280.56L63.12 280.56L63.12 282.24L63.36 282.24L63.36 282.48L63.6 282.48L63.6 283.92L63.84 283.92L63.84 284.4L64.08 284.4L64.08 285.6L64.32 285.6L64.32 286.08L64.56 286.08L64.56 287.76L64.8 287.76L64.8 288.72L65.04 288.72L65.04 289.44L65.28 289.44L65.28 290.16L65.52 290.16L65.52 290.64L65.76 290.64L65.76 291.12L66 291.12L66 291.6L66.24 291.6L66.24 291.84L66.72 291.84L66.72 292.08L66.96 292.08L66.96 291.84L67.44 291.84L67.44 291.6L67.92 291.6L67.92 291.36L68.16 291.36L68.16 290.4L68.64 290.4L68.64 288.72L69.12 288.72L69.12 288.24L69.36 288.24L69.36 288L69.6 288L69.6 287.28L69.84 287.28L69.84 285.36L70.08 285.36L70.08 284.64L70.32 284.64L70.32 283.92L70.56 283.92L70.56 283.68L70.8 283.68L70.8 283.2L71.04 283.2L71.04 282.48L71.28 282.48L71.28 281.52L71.52 281.52L71.52 280.32L71.76 280.32L71.76 279.6L72 279.6L72 278.64L72.24 278.64L72.24 277.92L72.48 277.92L72.48 277.44L72.72 277.44L72.72 276.96L72.96 276.96L72.96 276.48L73.2 276.48L73.2 275.76L73.44 275.76L73.44 274.8L73.68 274.8L73.68 274.08L73.92 274.08L73.92 273.6L74.16 273.6L74.16 273.36L74.4 273.36L74.4 272.88L74.64 272.88L74.64 272.64L74.88 272.64L74.88 272.4L75.12 272.4L75.12 272.16L75.36 272.16L75.36 271.92L75.6 271.92L75.6 271.68L76.08 271.68L76.08 271.44L76.56 271.44L76.56 271.2L76.8 271.2L76.8 270.96L77.28 270.96L77.28 269.76L77.04 269.76L77.04 269.52L76.56 269.52L76.56 269.28L76.08 269.28L76.08 269.04L74.16 269.04L74.16 268.8L73.68 268.8L73.44 268.8M107.76 268.8L107.76 268.8L107.76 269.04L106.32 269.04L106.32 269.28L106.08 269.28L106.08 269.52L105.6 269.52L105.6 269.76L104.88 269.76L104.88 270L104.4 270L104.4 270.24L104.16 270.24L104.16 270.48L103.92 270.48L103.92 270.72L103.68 270.72L103.68 270.96L103.44 270.96L103.44 271.44L103.2 271.44L103.2 271.92L102.96 271.92L102.96 272.4L102.72 272.4L102.72 273.12L102.48 273.12L102.48 276L102.72 276L102.72 276.72L102.96 276.72L102.96 277.2L103.2 277.2L103.2 277.68L103.44 277.68L103.44 278.16L103.68 278.16L103.68 278.4L103.92 278.4L103.92 278.64L104.16 278.64L104.16 278.88L104.64 278.88L104.64 279.12L104.88 279.12L104.88 279.36L105.36 279.36L105.36 279.6L105.6 279.6L105.6 279.84L106.08 279.84L106.08 280.08L106.56 280.08L106.56 280.32L108 280.32L108 280.56L108.48 280.56L108.48 280.8L108.96 280.8L108.96 281.04L109.44 281.04L109.44 281.28L110.4 281.28L110.4 281.52L110.88 281.52L110.88 281.76L111.6 281.76L111.6 282L112.32 282L112.32 282.24L112.8 282.24L112.8 282.48L113.52 282.48L113.52 282.72L114 282.72L114 282.96L114.48 282.96L114.48 283.2L114.72 283.2L114.72 283.44L114.96 283.44L114.96 283.68L115.2 283.68L115.2 283.92L115.44 283.92L115.44 284.16L115.68 284.16L115.68 284.64L115.92 284.64L115.92 285.36L116.16 285.36L116.16 286.32L116.4 286.32L116.4 286.56L116.16 286.56L116.16 287.04L115.92 287.04L115.92 287.52L115.68 287.52L115.68 287.76L115.44 287.76L115.44 288.72L114.96 288.72L114.96 288.96L114.72 288.96L114.72 289.2L114.24 289.2L114.24 289.44L113.76 289.44L113.76 289.68L113.28 289.68L113.28 289.92L112.8 289.92L112.8 290.16L109.92 290.16L109.92 289.92L109.44 289.92L109.44 289.68L109.2 289.68L109.2 289.44L108.72 289.44L108.72 289.2L108.48 289.2L108.48 288.96L108.24 288.96L108.24 288.72L107.76 288.72L107.76 288.48L107.52 288.48L107.52 288.24L107.28 288.24L107.28 288L106.56 288L106.56 287.76L106.32 287.76L106.32 287.28L106.08 287.28L106.08 287.04L105.84 287.04L105.84 286.56L105.6 286.56L105.6 286.08L105.36 286.08L105.36 285.36L105.12 285.36L105.12 284.88L104.88 284.88L104.88 284.4L104.64 284.4L104.64 283.68L104.4 283.68L104.4 283.44L103.92 283.44L103.92 283.2L102.72 283.2L102.72 283.92L102.48 283.92L102.48 286.56L102.24 286.56L102.24 287.52L102 287.52L102 288L102.24 288L102.24 288.96L102 288.96L102 289.92L102.24 289.92L102.24 290.64L102.48 290.64L102.48 291.12L102.72 291.12L102.72 291.36L102.96 291.36L102.96 291.6L104.16 291.6L104.16 291.36L104.4 291.36L104.4 291.12L104.64 291.12L104.64 290.88L104.88 290.88L104.88 290.64L105.12 290.64L105.12 290.4L105.6 290.4L105.6 290.16L106.56 290.16L106.56 290.4L107.04 290.4L107.04 290.64L107.52 290.64L107.52 290.88L108 290.88L108 291.12L108.24 291.12L108.24 291.36L109.68 291.36L109.68 291.6L110.4 291.6L110.4 291.84L112.56 291.84L112.56 291.6L114.48 291.6L114.48 291.36L114.96 291.36L114.96 291.12L115.68 291.12L115.68 290.88L115.92 290.88L115.92 290.64L116.4 290.64L116.4 290.4L116.64 290.4L116.64 290.16L116.88 290.16L116.88 289.92L117.36 289.92L117.36 289.68L117.6 289.68L117.6 289.2L117.84 289.2L117.84 288.96L118.08 288.96L118.08 288.72L118.32 288.72L118.32 288.24L118.56 288.24L118.56 287.76L118.8 287.76L118.8 287.04L119.04 287.04L119.04 284.64L118.8 284.64L118.8 283.44L118.56 283.44L118.56 282.72L118.32 282.72L118.32 282.24L118.08 282.24L118.08 281.76L117.84 281.76L117.84 281.28L117.36 281.28L117.36 281.04L117.12 281.04L117.12 280.8L116.88 280.8L116.88 280.56L116.64 280.56L116.64 280.32L116.4 280.32L116.4 280.08L116.16 280.08L116.16 279.84L115.92 279.84L115.92 279.6L115.44 279.6L115.44 279.36L114.96 279.36L114.96 279.12L114.48 279.12L114.48 278.88L114 278.88L114 278.64L113.28 278.64L113.28 278.4L112.8 278.4L112.8 278.16L112.08 278.16L112.08 277.92L111.12 277.92L111.12 277.68L110.4 277.68L110.4 277.44L109.92 277.44L109.92 277.2L109.44 277.2L109.44 276.96L108.96 276.96L108.96 277.2L108.48 277.2L108.48 276.96L108 276.96L108 276.72L107.04 276.72L107.04 276.48L106.32 276.48L106.32 276.24L106.08 276.24L106.08 276L105.84 276L105.84 275.52L105.6 275.52L105.6 275.04L105.36 275.04L105.36 273.84L105.12 273.84L105.12 272.88L105.36 272.88L105.36 272.16L105.6 272.16L105.6 271.68L105.84 271.68L105.84 271.44L106.08 271.44L106.08 271.2L106.32 271.2L106.32 270.96L106.8 270.96L106.8 270.72L107.28 270.72L107.28 270.48L110.64 270.48L110.64 270.72L111.12 270.72L111.12 270.96L111.6 270.96L111.6 271.2L111.84 271.2L111.84 271.44L112.32 271.44L112.32 271.68L112.56 271.68L112.56 271.92L112.8 271.92L112.8 272.4L113.04 272.4L113.04 272.64L113.28 272.64L113.28 272.88L113.52 272.88L113.52 273.12L113.76 273.12L113.76 273.6L114 273.6L114 274.08L114.24 274.08L114.24 274.56L114.48 274.56L114.48 275.04L114.72 275.04L114.72 275.76L114.96 275.76L114.96 276.24L115.2 276.24L115.2 276.48L115.44 276.48L115.44 276.72L116.88 276.72L116.88 275.76L117.12 275.76L117.12 270.24L116.88 270.24L116.88 269.52L116.64 269.52L116.64 269.28L115.92 269.28L115.92 269.52L115.44 269.52L115.44 269.76L114.96 269.76L114.96 270L114.48 270L114.48 270.24L114 270.24L114 270L112.8 270L112.8 269.76L112.08 269.76L112.08 269.52L111.6 269.52L111.6 269.28L110.88 269.28L110.88 269.04L110.16 269.04L110.16 268.8L108.96 268.8L108.96 269.04L108.72 269.04L108.72 268.8L108 268.8L107.76 268.8M81.84 269.28L81.84 269.28L81.84 269.52L80.88 269.52L80.88 269.76L80.4 269.76L80.4 270.24L80.16 270.24L80.16 271.44L80.4 271.44L80.4 271.68L80.64 271.68L80.64 271.92L81.36 271.92L81.36 272.16L82.08 272.16L82.08 272.4L83.04 272.4L83.04 272.64L83.28 272.64L83.28 272.88L83.52 272.88L83.52 273.36L83.76 273.36L83.76 274.08L84 274.08L84 276.96L83.76 276.96L83.76 277.92L84 277.92L84 279.36L84.24 279.36L84.24 280.8L84 280.8L84 281.52L84.24 281.52L84.24 282L84 282L84 282.48L84.24 282.48L84.24 283.68L84 283.68L84 283.92L84.24 283.92L84.24 285.6L84 285.6L84 288.96L83.76 288.96L83.76 289.44L83.52 289.44L83.52 289.68L83.04 289.68L83.04 289.92L82.56 289.92L82.56 290.16L81.84 290.16L81.84 290.4L81.36 290.4L81.36 291.36L81.6 291.36L81.6 291.6L84.96 291.6L84.96 291.84L87.36 291.84L87.36 291.6L87.84 291.6L87.84 291.84L88.8 291.84L88.8 291.6L91.2 291.6L91.2 291.84L92.4 291.84L92.4 291.6L93.84 291.6L93.84 291.36L95.04 291.36L95.04 291.12L96.24 291.12L96.24 290.88L96.72 290.88L96.72 290.64L97.2 290.64L97.2 290.4L97.44 290.4L97.44 290.16L97.68 290.16L97.68 289.92L97.92 289.92L97.92 289.68L98.16 289.68L98.16 289.44L98.64 289.44L98.64 289.2L98.88 289.2L98.88 288.96L99.12 288.96L99.12 288.72L99.36 288.72L99.36 288.48L99.6 288.48L99.6 288L99.84 288L99.84 287.52L100.08 287.52L100.08 287.04L99.84 287.04L99.84 285.36L99.6 285.36L99.6 284.88L99.36 284.88L99.36 284.16L99.12 284.16L99.12 283.68L98.88 283.68L98.88 283.44L98.64 283.44L98.64 283.2L98.4 283.2L98.4 282.96L97.92 282.96L97.92 282.72L97.68 282.72L97.68 282.48L97.44 282.48L97.44 282.24L96.96 282.24L96.96 282L96.48 282L96.48 281.76L96.24 281.76L96.24 281.52L95.76 281.52L95.76 281.28L95.52 281.28L95.52 281.04L95.28 281.04L95.28 280.8L95.04 280.8L95.04 280.56L94.8 280.56L94.8 280.32L95.04 280.32L95.04 280.08L95.28 280.08L95.28 279.84L95.52 279.84L95.52 279.6L96.24 279.6L96.24 279.36L96.72 279.36L96.72 279.12L97.2 279.12L97.2 278.88L97.44 278.88L97.44 278.64L97.92 278.64L97.92 278.4L98.16 278.4L98.16 278.16L98.4 278.16L98.4 277.92L98.64 277.92L98.64 277.68L98.88 277.68L98.88 277.44L99.12 277.44L99.12 276.96L99.36 276.96L99.36 275.52L99.6 275.52L99.6 274.56L99.36 274.56L99.36 273.6L99.12 273.6L99.12 272.4L98.88 272.4L98.88 272.16L98.64 272.16L98.64 271.92L98.4 271.92L98.4 271.68L98.16 271.68L98.16 271.2L97.92 271.2L97.92 270.96L97.44 270.96L97.44 270.72L96.72 270.72L96.72 270.48L96 270.48L96 270.24L95.76 270.24L95.76 270L95.04 270L95.04 269.76L94.32 269.76L94.32 269.52L93.36 269.52L93.36 269.28L90.96 269.28L90.96 269.52L90 269.52L90 269.28L89.28 269.28L89.28 269.52L89.04 269.52L89.04 269.28L87.84 269.28L87.84 269.52L86.64 269.52L86.64 269.28L84.48 269.28L84.48 269.52L82.56 269.52L82.56 269.28L82.08 269.28L81.84 269.28M169.44 269.28L169.44 269.28L169.44 269.52L168.96 269.52L168.96 269.76L168.72 269.76L168.72 270L168.48 270L168.48 270.24L168.24 270.24L168.24 270.48L168 270.48L168 270.72L166.8 270.72L166.8 270.96L166.32 270.96L166.32 271.2L164.88 271.2L164.88 270.96L163.44 270.96L163.44 271.2L163.2 271.2L163.2 272.64L163.68 272.64L163.68 272.88L165.84 272.88L165.84 273.12L166.32 273.12L166.32 273.36L166.56 273.36L166.56 273.6L166.8 273.6L166.8 273.84L167.04 273.84L167.04 274.08L167.28 274.08L167.28 274.32L167.52 274.32L167.52 274.8L167.76 274.8L167.76 283.2L167.52 283.2L167.52 284.88L167.76 284.88L167.76 286.56L167.52 286.56L167.52 288.48L167.28 288.48L167.28 288.96L167.04 288.96L167.04 289.2L166.8 289.2L166.8 289.44L165.36 289.44L165.36 289.68L164.88 289.68L164.88 289.92L164.4 289.92L164.4 290.16L163.92 290.16L163.92 291.36L164.4 291.36L164.4 291.6L164.64 291.6L164.64 291.84L165.84 291.84L165.84 291.6L167.28 291.6L167.28 291.84L170.16 291.84L170.16 291.6L171.84 291.6L171.84 291.36L172.56 291.36L172.56 291.6L174.24 291.6L174.24 291.36L174.96 291.36L174.96 291.12L175.44 291.12L175.44 290.4L175.2 290.4L175.2 290.16L174.72 290.16L174.72 289.92L173.04 289.92L173.04 289.68L172.56 289.68L172.56 289.44L172.32 289.44L172.32 289.2L172.08 289.2L172.08 288.48L171.84 288.48L171.84 287.52L171.6 287.52L171.6 276.96L171.36 276.96L171.36 276.48L171.6 276.48L171.6 272.64L171.84 272.64L171.84 271.68L171.6 271.68L171.6 270.72L171.36 270.72L171.36 270.24L171.12 270.24L171.12 269.76L170.88 269.76L170.88 269.52L170.64 269.52L170.64 269.28L169.68 269.28L169.44 269.28M136.56 269.76L136.56 269.76L136.56 270L134.64 270L134.64 270.24L133.92 270.24L133.92 270.48L133.68 270.48L133.68 270.72L132.96 270.72L132.96 270.96L132.48 270.96L132.48 271.2L132.24 271.2L132.24 271.44L132 271.44L132 271.68L131.52 271.68L131.52 272.16L131.28 272.16L131.28 272.4L131.04 272.4L131.04 272.88L130.8 272.88L130.8 273.36L130.56 273.36L130.56 274.08L130.32 274.08L130.32 277.2L130.56 277.2L130.56 277.68L130.8 277.68L130.8 278.16L131.04 278.16L131.04 278.4L131.28 278.4L131.28 278.64L132.24 278.64L132.24 278.88L133.2 278.88L133.2 279.12L133.44 279.12L133.44 278.88L133.68 278.88L133.68 278.64L133.92 278.64L133.92 278.4L134.4 278.4L134.4 278.16L134.64 278.16L134.64 277.92L134.88 277.92L134.88 277.2L135.12 277.2L135.12 276.48L134.88 276.48L134.88 275.76L134.64 275.76L134.64 275.28L134.4 275.28L134.4 275.04L134.16 275.04L134.16 274.8L133.92 274.8L133.92 274.56L133.68 274.56L133.68 274.32L133.44 274.32L133.44 274.08L133.2 274.08L133.2 273.12L133.44 273.12L133.44 272.88L133.92 272.88L133.92 272.64L134.4 272.64L134.4 272.4L134.64 272.4L134.64 272.16L135.36 272.16L135.36 271.92L135.84 271.92L135.84 271.68L137.52 271.68L137.52 271.92L137.76 271.92L137.76 272.16L138.24 272.16L138.24 272.4L138.48 272.4L138.48 272.64L138.96 272.64L138.96 272.88L139.2 272.88L139.2 273.36L139.44 273.36L139.44 273.6L139.68 273.6L139.68 276.24L139.44 276.24L139.44 277.92L139.2 277.92L139.2 278.64L138.96 278.64L138.96 279.12L138.72 279.12L138.72 279.6L138.48 279.6L138.48 279.84L138.24 279.84L138.24 280.32L138 280.32L138 280.56L137.76 280.56L137.76 280.8L137.52 280.8L137.52 281.04L137.04 281.04L137.04 281.28L136.8 281.28L136.8 281.52L136.56 281.52L136.56 282L136.32 282L136.32 282.24L135.84 282.24L135.84 282.48L135.6 282.48L135.6 282.72L135.36 282.72L135.36 283.2L135.12 283.2L135.12 283.44L134.88 283.44L134.88 283.92L134.64 283.92L134.64 284.16L134.4 284.16L134.4 284.4L134.16 284.4L134.16 284.64L133.68 284.64L133.68 284.88L133.44 284.88L133.44 285.12L133.2 285.12L133.2 285.36L132.96 285.36L132.96 285.6L132.72 285.6L132.72 285.84L132.48 285.84L132.48 286.08L132.24 286.08L132.24 286.32L132 286.32L132 286.56L131.76 286.56L131.76 287.04L131.52 287.04L131.52 287.52L131.28 287.52L131.28 288L131.04 288L131.04 288.24L130.8 288.24L130.8 288.72L130.56 288.72L130.56 289.2L130.32 289.2L130.32 289.44L130.08 289.44L130.08 290.4L130.32 290.4L130.32 290.64L130.56 290.64L130.56 291.12L130.8 291.12L130.8 291.36L131.04 291.36L131.04 291.6L137.04 291.6L137.04 291.84L138.96 291.84L138.96 291.6L139.44 291.6L139.44 291.36L140.16 291.36L140.16 291.6L141.12 291.6L141.12 291.84L142.56 291.84L142.56 291.6L143.04 291.6L143.04 291.36L143.28 291.36L143.28 291.12L143.52 291.12L143.52 289.92L143.76 289.92L143.76 288.96L144 288.96L144 286.56L143.76 286.56L143.76 285.84L143.52 285.84L143.52 285.6L142.56 285.6L142.56 285.84L142.32 285.84L142.32 286.56L142.08 286.56L142.08 287.04L141.84 287.04L141.84 287.28L141.6 287.28L141.6 287.76L141.36 287.76L141.36 288L140.88 288L140.88 288.24L140.4 288.24L140.4 288.48L135.36 288.48L135.36 288.24L134.4 288.24L134.4 288L133.92 288L133.92 287.76L133.68 287.76L133.68 287.28L133.92 287.28L133.92 286.8L134.16 286.8L134.16 286.56L134.4 286.56L134.4 286.32L134.88 286.32L134.88 286.08L135.12 286.08L135.12 285.84L135.36 285.84L135.36 285.6L135.6 285.6L135.6 285.36L135.84 285.36L135.84 285.12L136.08 285.12L136.08 284.88L136.32 284.88L136.32 284.64L136.56 284.64L136.56 284.4L136.8 284.4L136.8 284.16L137.04 284.16L137.04 283.92L137.28 283.92L137.28 283.68L137.52 283.68L137.52 283.44L137.76 283.44L137.76 283.2L138.24 283.2L138.24 282.96L138.48 282.96L138.48 282.72L138.96 282.72L138.96 282.48L139.44 282.48L139.44 282.24L139.68 282.24L139.68 282L140.16 282L140.16 281.76L140.4 281.76L140.4 281.52L140.64 281.52L140.64 281.28L140.88 281.28L140.88 281.04L141.12 281.04L141.12 280.8L141.6 280.8L141.6 280.56L141.84 280.56L141.84 280.32L142.08 280.32L142.08 280.08L142.56 280.08L142.56 279.84L142.8 279.84L142.8 279.36L143.04 279.36L143.04 278.64L143.28 278.64L143.28 278.4L143.52 278.4L143.52 277.92L143.76 277.92L143.76 276.48L144 276.48L144 276L144.24 276L144.24 275.28L144 275.28L144 274.8L143.76 274.8L143.76 274.32L143.52 274.32L143.52 273.6L143.28 273.6L143.28 273.12L143.04 273.12L143.04 272.64L142.8 272.64L142.8 272.16L142.56 272.16L142.56 271.92L142.32 271.92L142.32 271.68L141.84 271.68L141.84 271.44L141.6 271.44L141.6 271.2L141.36 271.2L141.36 270.96L140.88 270.96L140.88 270.72L140.64 270.72L140.64 270.48L140.16 270.48L140.16 270.24L139.2 270.24L139.2 270L138.48 270L138.48 269.76L136.8 269.76L136.56 269.76M152.16 270.48L154.32 270.72L154.32 270.96L154.8 270.96L154.8 271.2L155.28 271.2L155.28 271.44L155.52 271.44L155.52 272.16L155.76 272.16L155.76 273.6L156 273.6L156 274.08L156.24 274.08L156.24 274.32L156.72 274.32L156.72 274.56L156.24 274.56L156.24 275.28L156.48 275.28L156.48 279.36L156.72 279.36L156.72 282L156.48 282L156.48 283.2L156.72 283.2L156.72 285.84L156.48 285.84L156.48 286.8L156.24 286.8L156.24 287.52L156 287.52L156 287.76L155.76 287.76L155.76 288.24L155.52 288.24L155.52 288.48L155.28 288.48L155.28 288.72L155.04 288.72L155.04 288.96L154.56 288.96L154.56 289.2L154.32 289.2L154.32 289.44L152.88 289.44L152.88 289.2L152.4 289.2L152.4 288.96L152.16 288.96L152.16 288.72L151.92 288.72L151.92 288.48L151.68 288.48L151.68 288L151.44 288L151.44 287.76L151.2 287.76L151.2 287.28L150.96 287.28L150.96 286.8L150.72 286.8L150.72 285.6L150.48 285.6L150.48 284.88L150.24 284.88L150.24 281.52L150.48 281.52L150.48 278.16L150.24 278.16L150.24 277.2L150.48 277.2L150.48 276L150.72 276L150.72 273.84L150.96 273.84L150.96 272.88L151.2 272.88L151.2 272.16L151.44 272.16L151.44 271.68L151.68 271.68L151.68 271.2L151.92 271.2L151.92 270.96L152.16 270.96L152.16 270.72L152.16 270.48M185.76 271.2L186 271.44L186 271.68L186.48 271.68L186.48 271.92L186.96 271.92L186.96 272.16L187.2 272.16L187.2 272.64L187.44 272.64L187.44 273.12L187.68 273.12L187.68 273.36L187.92 273.36L187.92 273.6L188.16 273.6L188.16 276.48L187.92 276.48L187.92 277.2L187.68 277.2L187.68 277.68L187.44 277.68L187.44 278.16L187.2 278.16L187.2 278.4L186.96 278.4L186.96 278.64L186.72 278.64L186.72 278.88L186.48 278.88L186.48 279.12L185.52 279.12L185.52 279.36L184.32 279.36L184.32 279.12L184.08 279.12L184.08 278.88L183.84 278.88L183.84 278.64L183.6 278.64L183.6 278.4L183.36 278.4L183.36 278.16L183.12 278.16L183.12 277.68L182.88 277.68L182.88 276.24L182.64 276.24L182.64 275.52L182.88 275.52L182.88 275.04L182.64 275.04L182.64 274.56L182.88 274.56L182.88 273.6L183.12 273.6L183.12 273.12L183.36 273.12L183.36 272.64L183.6 272.64L183.6 272.4L183.84 272.4L183.84 272.16L184.08 272.16L184.08 271.92L184.8 271.92L184.8 271.68L185.76 271.68L185.76 271.44L185.76 271.2M90.24 271.92L91.68 272.16L91.68 272.4L92.88 272.4L92.88 272.64L93.36 272.64L93.36 272.88L93.6 272.88L93.6 273.12L93.84 273.12L93.84 273.36L94.08 273.36L94.08 273.6L94.32 273.6L94.32 274.08L94.56 274.08L94.56 275.04L94.8 275.04L94.8 276.72L94.56 276.72L94.56 277.44L94.32 277.44L94.32 277.68L94.08 277.68L94.08 278.16L93.84 278.16L93.84 278.64L93.36 278.64L93.36 278.88L93.12 278.88L93.12 279.12L92.4 279.12L92.4 279.36L91.92 279.36L91.92 279.6L90 279.6L90 279.84L89.52 279.84L89.52 279.6L88.56 279.6L88.56 279.36L88.32 279.36L88.32 279.12L88.08 279.12L88.08 278.64L87.84 278.64L87.84 274.56L88.08 274.56L88.08 273.12L88.32 273.12L88.32 272.88L88.56 272.88L88.56 272.64L88.8 272.64L88.8 272.4L90.24 272.4L90.24 272.16L90.24 271.92M89.04 280.8L89.52 281.04L89.52 281.28L90.24 281.28L90.24 281.52L91.2 281.52L91.2 281.76L91.92 281.76L91.92 282L92.64 282L92.64 282.24L93.12 282.24L93.12 282.48L93.6 282.48L93.6 282.72L94.08 282.72L94.08 282.96L94.32 282.96L94.32 283.2L94.56 283.2L94.56 283.44L94.8 283.44L94.8 284.16L95.04 284.16L95.04 284.4L95.28 284.4L95.28 285.12L95.52 285.12L95.52 287.04L95.28 287.04L95.28 288.24L95.04 288.24L95.04 288.72L94.8 288.72L94.8 288.96L94.56 288.96L94.56 289.2L94.32 289.2L94.32 289.44L93.84 289.44L93.84 289.68L93.36 289.68L93.36 289.92L92.88 289.92L92.88 290.16L92.64 290.16L92.64 290.4L92.16 290.4L92.16 290.64L91.68 290.64L91.68 290.4L89.28 290.4L89.28 290.16L88.8 290.16L88.8 289.92L88.32 289.92L88.32 289.68L88.08 289.68L88.08 289.44L87.84 289.44L87.84 288.48L87.6 288.48L87.6 287.76L87.36 287.76L87.36 287.52L87.6 287.52L87.6 287.04L87.36 287.04L87.36 286.08L87.6 286.08L87.6 285.12L87.36 285.12L87.36 284.4L87.6 284.4L87.6 282.72L87.84 282.72L87.84 282L88.08 282L88.08 281.52L88.32 281.52L88.32 281.28L89.04 281.28L89.04 281.04L89.04 280.8"/>
</svg>
