<?xml version="1.0" standalone="no"?>
<!DOCTYPE svg PUBLIC "-//W3C//DTD SVG 20010904//EN" "http://www.w3.org/TR/2001/REC-SVG-20010904/DTD/svg10.dtd">
<!-- Created using Krita: https://krita.org -->
<svg xmlns="http://www.w3.org/2000/svg" 
    xmlns:xlink="http://www.w3.org/1999/xlink"
    xmlns:krita="http://krita.org/namespaces/svg/krita"
    xmlns:sodipodi="http://sodipodi.sourceforge.net/DTD/sodipodi-0.dtd"
    width="921.6pt"
    height="1036.8pt"
    viewBox="0 0 921.6 1036.8">
<defs/>
<path id="shape0" transform="translate(-9.85200514734737, 354.542587937738)" fill="#246eb9" fill-rule="evenodd" stroke="#246eb9" stroke-width="7.68" stroke-linecap="square" stroke-linejoin="bevel" d="M13.9183 0.36812C364.661 -4.51842 554.878 39.2441 584.571 131.656C614.263 224.067 567.869 280.607 445.387 301.276C313.627 319.513 275.583 343.828 331.257 374.223C414.767 419.815 573.436 498.234 512.195 551.12C450.954 604.007 386.93 525.624 264.449 605.831C182.794 659.302 201.352 686.038 320.122 686.038L13.9183 728.018L13.9183 24.076C-4.63945 24.076 -4.63945 16.1734 13.9183 0.36812Z" sodipodi:nodetypes="czczzzcccc"/><path id="shape1" transform="translate(337.479040924692, -111.861030418859)" fill="#edb458" fill-rule="evenodd" stroke="#edb458" stroke-width="7.68" stroke-linecap="square" stroke-linejoin="bevel" d="M0 43.3714C33.1387 365.894 179.767 472.816 439.886 364.137C519.265 336 556.298 364.356 550.984 449.206C545.67 534.055 499.331 603.118 411.967 656.394C305.845 725.353 261.005 782.027 277.445 826.416C302.106 892.999 369.253 912.066 414.896 923.281C460.539 934.497 520.374 936.362 648.288 930.991C733.563 927.411 774.279 951.965 770.433 1004.65L801.486 64.4362L695.218 0C677.154 0 445.415 14.4571 0 43.3714Z" sodipodi:nodetypes="cczczzzcccc"/>
</svg>
